<svg width="249" height="138" viewBox="0 0 249 138" fill="none" xmlns="http://www.w3.org/2000/svg">
<g opacity="0.3" clip-path="url(#clip0_35575_9943)">
<g opacity="0.8">
<path d="M346.741 102.052C344.422 101.964 342.147 101.177 340.222 99.8215L30.8904 -116.357C28.1777 -118.238 26.3839 -121.081 25.7713 -124.361C25.2025 -127.641 25.9026 -130.921 27.7839 -133.632L243.572 -443.709C246.022 -447.208 250.004 -449.176 254.291 -449.001C256.61 -448.913 258.885 -448.126 260.81 -446.77L570.142 -230.591C572.854 -228.711 574.648 -225.868 575.261 -222.588C575.829 -219.308 575.129 -216.028 573.248 -213.316L357.46 96.7164C355.01 100.215 351.028 102.227 346.741 102.052ZM254.248 -447.995C250.31 -448.17 246.635 -446.333 244.403 -443.14L28.6152 -133.064C26.8651 -130.571 26.2088 -127.553 26.7339 -124.536C27.2589 -121.518 28.9215 -118.938 31.4154 -117.188L340.747 98.9905C342.54 100.215 344.597 100.915 346.741 101.046C350.678 101.221 354.354 99.3841 356.585 96.1915L572.373 -213.885C574.123 -216.378 574.779 -219.396 574.254 -222.413C573.729 -225.431 572.067 -228.011 569.573 -229.761L260.242 -445.939C258.492 -447.208 256.391 -447.907 254.248 -447.995Z" fill="#6E97AE"/>
<path d="M334.796 103.67C332.477 103.583 330.202 102.796 328.321 101.396L29.4902 -113.164C26.865 -115.045 25.1149 -117.844 24.5899 -121.037C24.0649 -124.229 24.8087 -127.422 26.69 -130.046L240.815 -429.582C243.222 -432.906 247.072 -434.787 251.185 -434.612C253.504 -434.524 255.779 -433.737 257.66 -432.338L556.491 -217.777C561.916 -213.885 563.141 -206.319 559.291 -200.896L345.122 98.641C342.759 101.965 338.909 103.845 334.796 103.67ZM251.141 -433.606C247.378 -433.781 243.834 -432.032 241.647 -428.97L27.4776 -129.434C25.7712 -127.028 25.0712 -124.098 25.5525 -121.168C26.0337 -118.238 27.6088 -115.657 30.0152 -113.952L328.846 100.609C330.596 101.877 332.652 102.577 334.796 102.665C338.559 102.839 342.103 101.09 344.29 98.0287L558.416 -201.508C561.96 -206.494 560.822 -213.447 555.878 -216.99L257.048 -431.55C255.341 -432.819 253.285 -433.519 251.141 -433.606Z" fill="#6E97AE"/>
<path d="M322.808 105.332C320.489 105.245 318.257 104.457 316.332 103.058L28.0025 -109.885C22.7959 -113.733 21.6583 -121.168 25.5086 -126.372L238.015 -415.413C240.334 -418.605 244.097 -420.398 248.034 -420.224C250.353 -420.136 252.585 -419.349 254.51 -417.949L542.84 -205.007C545.377 -203.126 547.04 -200.371 547.477 -197.266C547.959 -194.161 547.171 -191.056 545.334 -188.475L332.827 100.565C330.508 103.714 326.745 105.507 322.808 105.332ZM247.991 -419.218C244.403 -419.393 240.947 -417.731 238.846 -414.844L26.3399 -125.804C22.7959 -120.993 23.846 -114.214 28.615 -110.672L316.945 102.271C318.695 103.539 320.708 104.282 322.851 104.37C326.439 104.545 329.896 102.883 331.996 99.9964L544.502 -189.044C546.209 -191.362 546.909 -194.204 546.471 -197.091C546.034 -199.934 544.546 -202.47 542.227 -204.176L253.897 -417.118C252.191 -418.387 250.135 -419.13 247.991 -419.218Z" fill="#6E97AE"/>
<path d="M310.863 106.994C308.544 106.906 306.312 106.075 304.431 104.676L26.6019 -106.605C24.1518 -108.442 22.5767 -111.153 22.1829 -114.215C21.7454 -117.276 22.5767 -120.294 24.4143 -122.743L235.302 -401.243C237.577 -404.261 241.209 -405.966 244.971 -405.792C247.29 -405.704 249.522 -404.873 251.403 -403.474L529.232 -192.193C534.264 -188.344 535.27 -181.128 531.42 -176.055L320.532 102.445C318.213 105.463 314.625 107.169 310.863 106.994ZM244.884 -404.829C241.427 -404.961 238.146 -403.43 236.046 -400.675L25.1581 -122.174C23.4517 -119.944 22.7517 -117.189 23.1017 -114.39C23.4955 -111.591 24.9393 -109.141 27.1707 -107.436L305.044 103.888C306.75 105.2 308.763 105.944 310.906 106.031C314.363 106.163 317.644 104.632 319.745 101.877L530.632 -176.624C534.132 -181.259 533.214 -187.863 528.62 -191.362L250.79 -402.643C249.04 -403.998 247.028 -404.698 244.884 -404.829Z" fill="#6E97AE"/>
<path d="M298.875 108.657C296.556 108.57 294.324 107.739 292.487 106.295L25.1583 -103.367C22.7956 -105.204 21.3081 -107.872 20.958 -110.846C20.608 -113.82 21.3956 -116.75 23.2332 -119.111L232.502 -387.116C234.733 -389.958 238.19 -391.576 241.821 -391.401C244.14 -391.314 246.372 -390.483 248.209 -389.04L515.538 -179.377C517.9 -177.541 519.388 -174.873 519.738 -171.899C520.088 -168.925 519.301 -165.995 517.463 -163.633L308.194 104.371C305.963 107.214 302.506 108.832 298.875 108.657ZM241.778 -390.396C238.496 -390.527 235.302 -389.084 233.29 -386.503L24.0207 -118.499C22.3581 -116.356 21.6143 -113.688 21.9206 -110.977C22.2706 -108.265 23.6269 -105.86 25.7708 -104.154L293.099 105.508C294.762 106.82 296.818 107.564 298.919 107.651C302.2 107.782 305.394 106.339 307.407 103.759L516.675 -164.245C518.338 -166.388 519.082 -169.056 518.775 -171.768C518.425 -174.479 517.069 -176.885 514.925 -178.59L247.597 -388.253C245.934 -389.565 243.921 -390.308 241.778 -390.396Z" fill="#6E97AE"/>
<path d="M286.93 110.318C284.611 110.231 282.38 109.4 280.586 107.913L23.7582 -100.131C19.0767 -103.936 18.3766 -110.802 22.1394 -115.482L229.789 -372.946C231.933 -375.614 235.302 -377.144 238.759 -377.013C241.078 -376.926 243.309 -376.095 245.147 -374.608L501.975 -166.564C504.25 -164.727 505.65 -162.103 505.956 -159.216C506.262 -156.33 505.431 -153.487 503.593 -151.213L295.9 106.295C293.712 108.963 290.387 110.493 286.93 110.318ZM238.671 -376.007C235.521 -376.139 232.502 -374.783 230.533 -372.334L22.8832 -114.87C19.4705 -110.627 20.1267 -104.33 24.3708 -100.918L281.199 107.126C282.861 108.482 284.874 109.225 286.974 109.313C290.124 109.444 293.143 108.088 295.112 105.639L502.762 -151.825C504.425 -153.881 505.168 -156.461 504.906 -159.129C504.643 -161.753 503.331 -164.158 501.274 -165.82L244.446 -373.864C242.784 -375.176 240.771 -375.92 238.671 -376.007Z" fill="#6E97AE"/>
<path d="M274.942 111.979C272.623 111.892 270.392 111.017 268.598 109.53L22.2703 -96.8957C20.0827 -98.7325 18.7701 -101.269 18.5076 -104.112C18.2451 -106.955 19.1202 -109.71 20.9578 -111.897L226.945 -358.821C229.089 -361.401 232.239 -362.757 235.564 -362.626C237.927 -362.538 240.115 -361.663 241.909 -360.176L488.236 -153.75C492.743 -149.989 493.311 -143.254 489.549 -138.793L283.561 108.175C281.417 110.755 278.311 112.154 274.942 111.979ZM235.521 -361.62C232.502 -361.751 229.658 -360.483 227.733 -358.165L21.7016 -111.241C20.039 -109.273 19.2514 -106.78 19.5139 -104.199C19.7327 -101.619 20.9578 -99.3011 22.9266 -97.6392L269.254 108.787C270.873 110.143 272.885 110.93 274.986 111.017C278.005 111.149 280.848 109.88 282.774 107.562L488.805 -139.362C492.217 -143.429 491.649 -149.552 487.58 -152.919L241.252 -359.345C239.633 -360.745 237.665 -361.532 235.521 -361.62Z" fill="#6E97AE"/>
<path d="M262.998 113.643C260.635 113.555 258.491 112.681 256.697 111.106L20.8706 -93.7018C18.7705 -95.4949 17.5454 -98.0315 17.3266 -100.787C17.1516 -103.542 18.0267 -106.21 19.8205 -108.309L224.189 -344.737C226.289 -347.142 229.264 -348.454 232.458 -348.279C234.821 -348.192 236.965 -347.317 238.759 -345.743L474.585 -140.935C476.686 -139.142 477.911 -136.605 478.129 -133.85C478.304 -131.095 477.429 -128.427 475.635 -126.328L271.267 110.1C269.167 112.506 266.148 113.818 262.998 113.643ZM232.415 -347.23C229.527 -347.361 226.814 -346.18 224.933 -343.993L20.5643 -107.609C18.9455 -105.729 18.1142 -103.323 18.2892 -100.831C18.4642 -98.3377 19.6018 -96.0635 21.4831 -94.4453L257.31 110.363C258.929 111.762 260.898 112.549 262.998 112.637C265.885 112.768 268.598 111.587 270.479 109.4L474.848 -127.027C476.467 -128.908 477.298 -131.313 477.123 -133.806C476.948 -136.299 475.81 -138.573 473.929 -140.191L238.102 -344.999C236.484 -346.355 234.515 -347.142 232.415 -347.23Z" fill="#6E97AE"/>
<path d="M251.009 115.348C248.69 115.26 246.459 114.342 244.752 112.768L19.4264 -90.3785C17.4138 -92.1716 16.2762 -94.6644 16.1012 -97.3322C15.9699 -100 16.8888 -102.58 18.6826 -104.592L221.432 -330.48C223.445 -332.71 226.333 -333.935 229.352 -333.804C231.67 -333.716 233.902 -332.798 235.608 -331.224L460.934 -128.078C462.947 -126.284 464.084 -123.792 464.259 -121.124C464.391 -118.456 463.472 -115.876 461.678 -113.864L258.928 112.024C256.916 114.254 254.028 115.479 251.009 115.348ZM229.308 -332.842C226.595 -332.973 224.014 -331.879 222.176 -329.824L19.3827 -103.936C17.7638 -102.143 16.9325 -99.8251 17.0638 -97.376C17.195 -94.9706 18.2451 -92.7401 20.0389 -91.122L245.365 112.024C246.94 113.424 248.909 114.254 251.009 114.342C253.722 114.473 256.303 113.38 258.141 111.324L460.89 -114.564C462.509 -116.357 463.341 -118.675 463.209 -121.124C463.078 -123.529 462.028 -125.76 460.234 -127.378L234.908 -330.524C233.377 -331.923 231.364 -332.754 229.308 -332.842Z" fill="#6E97AE"/>
<path d="M239.065 117.009C236.746 116.922 234.515 115.96 232.809 114.385L17.9832 -87.1426C16.0581 -88.9357 14.9643 -91.3411 14.8768 -93.9652C14.7893 -96.5892 15.7081 -99.0821 17.502 -100.963L218.633 -316.354C220.602 -318.454 223.358 -319.547 226.202 -319.459C228.521 -319.372 230.752 -318.41 232.459 -316.835L447.284 -115.308C451.222 -111.634 451.397 -105.424 447.722 -101.487L246.635 113.904C244.666 116.003 241.909 117.141 239.065 117.009ZM226.158 -318.454C223.577 -318.585 221.127 -317.535 219.377 -315.655L18.2458 -100.307C16.6269 -98.601 15.7956 -96.3706 15.8831 -94.0089C15.9706 -91.6472 16.9332 -89.5043 18.6395 -87.8861L233.465 113.642C234.996 115.085 236.965 115.916 239.065 116.003C241.647 116.135 244.097 115.085 245.847 113.248L446.978 -102.143C450.303 -105.686 450.084 -111.24 446.584 -114.564L231.759 -316.092C230.227 -317.535 228.258 -318.366 226.158 -318.454Z" fill="#6E97AE"/>
<path d="M227.077 118.671C224.758 118.583 222.527 117.621 220.864 115.959L16.5396 -83.9506C12.7769 -87.6242 12.7332 -93.6596 16.3646 -97.4207L215.877 -302.272C217.758 -304.197 220.383 -305.246 223.096 -305.115C225.415 -305.028 227.646 -304.066 229.309 -302.404L433.634 -102.494C437.396 -98.8203 437.44 -92.7849 433.809 -89.0237L234.297 115.828C232.415 117.752 229.79 118.802 227.077 118.671ZM223.052 -304.065C220.646 -304.153 218.283 -303.235 216.577 -301.485L17.0647 -96.6772C13.7832 -93.3097 13.8707 -87.9304 17.1959 -84.6066L221.521 115.303C223.008 116.746 224.977 117.621 227.077 117.708C229.484 117.796 231.846 116.878 233.553 115.128L433.065 -89.7235C436.346 -93.0911 436.259 -98.4704 432.934 -101.75L228.609 -301.66C227.121 -303.147 225.152 -303.978 223.052 -304.065Z" fill="#6E97AE"/>
<path d="M215.132 120.377C212.77 120.29 210.582 119.284 208.963 117.622L15.0953 -80.6694C11.5513 -84.2994 11.5951 -90.1598 15.2265 -93.746L213.12 -288.058C214.957 -289.851 217.451 -290.813 219.989 -290.682C222.352 -290.594 224.539 -289.588 226.158 -287.926L419.982 -89.635C423.526 -86.005 423.482 -80.1446 419.851 -76.5584L221.958 117.753C220.164 119.503 217.67 120.465 215.132 120.377ZM219.945 -289.72C217.67 -289.807 215.439 -288.976 213.82 -287.358L15.9266 -93.0462C12.6889 -89.8536 12.6451 -84.6492 15.7953 -81.3692L209.663 116.922C211.151 118.409 213.076 119.284 215.176 119.371C217.451 119.459 219.683 118.628 221.301 117.01L419.195 -77.3019C422.432 -80.4945 422.476 -85.6989 419.326 -88.979L225.502 -287.27C223.97 -288.757 222.002 -289.632 219.945 -289.72Z" fill="#6E97AE"/>
<path d="M203.144 122.04C200.782 121.952 198.594 120.946 196.975 119.197L13.6516 -77.4325C12.0328 -79.1819 11.1577 -81.456 11.2452 -83.8614C11.3327 -86.2668 12.3391 -88.4973 14.0892 -90.1154L210.363 -273.931C212.114 -275.593 214.432 -276.468 216.883 -276.336C219.245 -276.249 221.433 -275.243 223.052 -273.494L406.332 -76.8202C409.7 -73.1903 409.526 -67.5048 405.894 -64.1373L209.663 119.634C207.87 121.296 205.594 122.171 203.144 122.04ZM216.795 -275.33C214.651 -275.418 212.595 -274.674 211.02 -273.187L14.7454 -89.372C13.1704 -87.9287 12.2953 -85.9607 12.2078 -83.8177C12.1203 -81.6747 12.9078 -79.6629 14.3517 -78.0885L197.719 118.541C199.163 120.072 201.088 120.99 203.188 121.078C205.332 121.165 207.388 120.422 208.963 118.935L405.238 -64.8808C408.432 -67.8984 408.607 -72.9279 405.631 -76.1642L222.264 -272.838C220.864 -274.368 218.895 -275.243 216.795 -275.33Z" fill="#6E97AE"/>
<path d="M191.199 123.745C188.837 123.658 186.649 122.608 185.074 120.815L12.2073 -74.1966C9.01332 -77.7828 9.36335 -83.2933 12.9511 -86.4859L207.607 -259.761C209.313 -261.292 211.501 -262.036 213.776 -261.948C216.138 -261.861 218.326 -260.811 219.901 -259.018L392.724 -64.0065C395.918 -60.4203 395.568 -54.9097 391.98 -51.7171L197.325 121.558C195.662 123.089 193.474 123.833 191.199 123.745ZM213.688 -260.986C211.676 -261.073 209.75 -260.374 208.219 -259.062L13.6074 -85.7424C10.4134 -82.8997 10.1509 -78.0452 12.9511 -74.8526L185.818 120.159C187.218 121.733 189.143 122.652 191.243 122.739C193.256 122.827 195.181 122.127 196.712 120.815L391.368 -52.4606C394.562 -55.3034 394.824 -60.1579 392.024 -63.3505L219.157 -258.362C217.713 -259.98 215.788 -260.898 213.688 -260.986Z" fill="#6E97AE"/>
<path d="M179.211 125.45C176.849 125.362 174.617 124.269 173.13 122.432L10.7638 -70.9612C9.31996 -72.7106 8.61992 -74.8973 8.79493 -77.1277C8.96994 -79.3582 10.0638 -81.4137 11.7701 -82.8569L204.763 -245.636C206.382 -246.992 208.438 -247.692 210.582 -247.604C212.945 -247.517 215.176 -246.423 216.664 -244.587L379.073 -51.1933C382.049 -47.6071 381.611 -42.2715 378.067 -39.2976L185.031 123.482C183.412 124.837 181.355 125.537 179.211 125.45ZM210.582 -246.598C208.701 -246.686 206.907 -246.074 205.463 -244.849L12.4264 -82.1135C10.8951 -80.8452 9.97625 -79.0083 9.80124 -77.0403C9.62623 -75.0722 10.2388 -73.1042 11.5076 -71.5735L173.874 121.82C175.23 123.394 177.155 124.4 179.255 124.488C181.137 124.575 182.93 123.963 184.374 122.738L377.367 -40.041C380.517 -42.7088 380.911 -47.4321 378.286 -50.581L215.92 -243.974C214.607 -245.549 212.638 -246.511 210.582 -246.598Z" fill="#6E97AE"/>
<path d="M167.267 127.156C164.904 127.068 162.673 125.931 161.185 124.051L9.31957 -67.7244C7.96324 -69.43 7.3507 -71.573 7.61322 -73.7597C7.87573 -75.9464 8.9258 -77.8707 10.6759 -79.2702L202.05 -231.509C203.581 -232.734 205.506 -233.346 207.475 -233.303C209.838 -233.215 212.069 -232.078 213.557 -230.197L365.422 -38.3786C368.222 -34.8362 367.654 -29.6755 364.11 -26.8328L172.692 125.406C171.161 126.631 169.235 127.243 167.267 127.156ZM207.431 -232.253C205.681 -232.34 204.019 -231.772 202.662 -230.679L11.2884 -78.483C9.80085 -77.3022 8.83829 -75.5528 8.61953 -73.6722C8.40077 -71.7479 8.9258 -69.8673 10.1509 -68.3804L161.973 123.438C163.285 125.057 165.21 126.062 167.31 126.15C169.017 126.237 170.723 125.669 172.079 124.576L363.453 -27.6637C366.56 -30.1566 367.085 -34.705 364.635 -37.8101L212.769 -229.585C211.457 -231.16 209.532 -232.165 207.431 -232.253Z" fill="#6E97AE"/>
<path d="M155.279 128.862C152.872 128.775 150.685 127.594 149.241 125.67L7.87619 -64.4872C5.25103 -68.0297 5.99482 -73.0154 9.49503 -75.6395L199.25 -217.339C200.694 -218.432 202.532 -219.001 204.325 -218.913C206.732 -218.826 208.92 -217.645 210.363 -215.721L351.772 -25.5637C354.397 -22.0212 353.653 -17.0355 350.153 -14.4114L160.398 127.288C158.91 128.381 157.116 128.95 155.279 128.862ZM204.325 -217.907C202.75 -217.995 201.132 -217.47 199.863 -216.552L10.1076 -74.8523C7.04489 -72.5343 6.3886 -68.1609 8.66373 -65.0995L150.028 125.057C151.297 126.763 153.222 127.769 155.323 127.856C156.898 127.944 158.517 127.419 159.785 126.501L349.541 -15.1986C352.603 -17.5165 353.259 -21.89 350.984 -24.9514L209.62 -215.108C208.351 -216.814 206.426 -217.82 204.325 -217.907Z" fill="#6E97AE"/>
<path d="M143.334 130.611C140.927 130.523 138.74 129.299 137.34 127.287L6.47563 -61.252C4.06924 -64.7508 4.90054 -69.5615 8.40075 -72.0107L196.537 -203.214C197.937 -204.176 199.556 -204.657 201.262 -204.569C203.669 -204.482 205.856 -203.257 207.256 -201.246L338.121 -12.7507C340.527 -9.25191 339.696 -4.44112 336.196 -1.992L148.059 129.211C146.659 130.173 144.996 130.654 143.334 130.611ZM201.219 -203.564C199.731 -203.607 198.331 -203.214 197.106 -202.383L8.96953 -71.1797C5.90685 -69.0367 5.16305 -64.8382 7.30693 -61.8206L138.127 126.718C139.352 128.468 141.234 129.517 143.378 129.605C144.865 129.648 146.265 129.255 147.49 128.424L335.627 -2.7792C338.689 -4.92219 339.433 -9.1207 337.289 -12.1821L206.425 -200.721C205.244 -202.426 203.319 -203.476 201.219 -203.564Z" fill="#6E97AE"/>
<path d="M131.346 132.317C128.94 132.23 126.709 130.918 125.396 128.906L5.03254 -58.0147C2.80116 -61.4697 3.80747 -66.1493 7.26393 -68.3798L193.781 -189.043C195.094 -189.874 196.625 -190.311 198.157 -190.224C200.563 -190.136 202.794 -188.824 204.107 -186.812L324.471 0.0644544C326.702 3.51947 325.696 8.19904 322.239 10.4295L135.722 131.136C134.409 131.967 132.878 132.405 131.346 132.317ZM198.113 -189.261C196.757 -189.305 195.444 -188.955 194.306 -188.212L7.78896 -67.5488C4.77003 -65.5808 3.89497 -61.5572 5.86384 -58.5395L126.227 128.337C127.365 130.087 129.29 131.224 131.39 131.311C132.746 131.355 134.059 131.005 135.197 130.262L321.714 9.59854C324.733 7.63049 325.608 3.60693 323.639 0.589265L203.276 -186.288C202.138 -188.037 200.213 -189.174 198.113 -189.261Z" fill="#6E97AE"/>
<path d="M119.358 134.067C116.908 133.979 114.677 132.623 113.408 130.524L3.58873 -54.7782C1.53236 -58.2332 2.66993 -62.6941 6.12639 -64.7496L191.025 -174.916C192.25 -175.66 193.65 -176.01 195.05 -175.922C197.5 -175.835 199.732 -174.479 201.001 -172.38L310.82 12.9226C312.876 16.3776 311.739 20.8385 308.282 22.894L123.383 133.017C122.158 133.761 120.802 134.11 119.358 134.067ZM194.963 -174.916C193.738 -174.96 192.556 -174.654 191.506 -174.042L6.60767 -63.9187C3.63249 -62.1255 2.66993 -58.2769 4.42003 -55.303L114.283 129.999C115.377 131.836 117.302 132.973 119.402 133.061C120.627 133.105 121.808 132.798 122.858 132.186L307.757 22.0193C310.732 20.2262 311.695 16.3776 309.945 13.4036L200.082 -171.855C199.032 -173.692 197.107 -174.829 194.963 -174.916Z" fill="#6E97AE"/>
<path d="M107.414 135.816C104.963 135.729 102.688 134.285 101.507 132.099L2.1448 -51.5417C0.307188 -54.953 1.57601 -59.2827 4.98872 -61.1195L188.225 -160.746C189.362 -161.359 190.631 -161.665 191.9 -161.577C194.35 -161.49 196.625 -160.047 197.807 -157.86L297.169 25.7369C299.006 29.1481 297.738 33.4778 294.325 35.3147L111.089 134.942C109.951 135.554 108.682 135.86 107.414 135.816ZM191.856 -160.615C190.762 -160.659 189.669 -160.396 188.706 -159.872L5.47 -60.2448C2.53857 -58.6267 1.44476 -54.953 3.01985 -51.979L102.382 131.618C103.388 133.498 105.314 134.723 107.457 134.81C108.551 134.854 109.645 134.592 110.608 134.067L293.844 34.44C296.775 32.8218 297.869 29.1481 296.294 26.1742L196.932 -157.466C195.925 -159.347 194 -160.528 191.856 -160.615Z" fill="#6E97AE"/>
<path d="M95.425 137.565C92.9311 137.434 90.6559 135.99 89.5621 133.716L0.700501 -48.3061C-0.962099 -51.7173 0.437985 -55.8284 3.85069 -57.4903L185.468 -146.577C186.518 -147.102 187.656 -147.321 188.793 -147.277C191.331 -147.146 193.562 -145.702 194.656 -143.428L283.518 38.5503C285.18 41.9616 283.78 46.0726 280.367 47.7345L98.7502 136.865C97.7001 137.39 96.5625 137.609 95.425 137.565ZM188.749 -146.315C187.787 -146.358 186.78 -146.14 185.905 -145.702L4.28822 -56.6156C1.40054 -55.1724 0.175469 -51.6736 1.57555 -48.7434L90.4372 133.279C91.3997 135.203 93.3248 136.472 95.4687 136.559C96.4313 136.603 97.4376 136.384 98.3126 135.947L279.93 46.8598C282.818 45.4166 284.043 41.9179 282.642 38.9877L193.781 -143.035C192.818 -144.959 190.893 -146.227 188.749 -146.315Z" fill="#6E97AE"/>
</g>
</g>
<defs>
<clipPath id="clip0_35575_9943">
<rect width="138" height="249" fill="white" transform="translate(0 138) rotate(-90)"/>
</clipPath>
</defs>
</svg>
