<svg width="24" height="24" viewBox="0 0 24 24" fill="none" xmlns="http://www.w3.org/2000/svg">
<path fill-rule="evenodd" clip-rule="evenodd" d="M10.6833 2.06521C9.14608 2.28056 7.26377 3.04462 6.08899 3.93027C2.30993 6.77906 0.983553 11.6544 2.81599 15.9606L3.09433 16.6148L2.52415 18.6668C2.11399 20.1427 1.9714 20.7983 2.01612 21.0022C2.1063 21.4129 2.49143 21.8243 2.90037 21.9468C3.22277 22.0434 3.44721 22 5.32483 21.4782L7.39399 20.9031L7.93924 21.1453C13.4508 23.5934 19.9225 20.5715 21.608 14.7626C22.6589 11.1407 21.601 7.34831 18.801 4.70052C17.0312 3.0269 14.8337 2.10927 12.3792 2.01909C11.7839 1.99715 11.0208 2.01796 10.6833 2.06521Z" fill="#1FACF3"/>
</svg>
