<svg width="381" height="123" viewBox="0 0 381 123" fill="none" xmlns="http://www.w3.org/2000/svg">
<g opacity="0.3" clip-path="url(#clip0_35575_7989)">
<g opacity="0.8">
<path d="M515.637 73.507C512.442 73.3865 509.308 72.3027 506.657 70.436L80.5497 -227.202C76.813 -229.791 74.342 -233.705 73.4982 -238.221C72.7147 -242.737 73.679 -247.253 76.2706 -250.986L373.521 -677.903C376.896 -682.72 382.38 -685.43 388.287 -685.189C391.481 -685.068 394.615 -683.985 397.267 -682.118L823.374 -384.48C827.11 -381.891 829.582 -377.977 830.425 -373.461C831.209 -368.945 830.244 -364.429 827.653 -360.696L530.403 66.1608C527.028 70.978 521.543 73.7478 515.637 73.507ZM388.227 -683.804C382.802 -684.045 377.74 -681.516 374.666 -677.12L77.4157 -250.203C75.0049 -246.771 74.1009 -242.616 74.8241 -238.462C75.5473 -234.307 77.8376 -230.754 81.273 -228.346L507.38 69.292C509.851 70.978 512.684 71.9414 515.637 72.122C521.061 72.3629 526.124 69.8339 529.197 65.4383L826.447 -361.479C828.858 -364.911 829.762 -369.066 829.039 -373.22C828.316 -377.375 826.026 -380.928 822.59 -383.336L396.483 -680.974C394.073 -682.72 391.18 -683.683 388.227 -683.804Z" fill="#1FACF3"/>
<path d="M499.183 75.7345C495.988 75.6141 492.854 74.5303 490.263 72.6034L78.6208 -222.806C75.0046 -225.395 72.5938 -229.249 71.8706 -233.645C71.1474 -238.04 72.1719 -242.436 74.7635 -246.049L369.723 -658.454C373.038 -663.03 378.342 -665.62 384.007 -665.379C387.202 -665.258 390.336 -664.175 392.927 -662.248L804.569 -366.838C812.043 -361.479 813.73 -351.062 808.427 -343.595L513.406 68.8099C510.152 73.3862 504.848 75.9754 499.183 75.7345ZM383.947 -663.994C378.764 -664.235 373.882 -661.826 370.869 -657.611L75.8484 -245.206C73.4979 -241.894 72.5336 -237.86 73.1965 -233.825C73.8595 -229.791 76.0292 -226.238 79.344 -223.89L490.986 71.5196C493.397 73.2658 496.23 74.2292 499.183 74.3496C504.366 74.5905 509.248 72.1819 512.261 67.9669L807.221 -344.438C812.103 -351.303 810.536 -360.877 803.726 -365.754L392.083 -661.164C389.733 -662.91 386.9 -663.873 383.947 -663.994Z" fill="#1FACF3"/>
<path d="M482.668 78.0229C479.474 77.9025 476.4 76.8186 473.748 74.8918L76.5712 -218.29C69.3991 -223.589 67.8321 -233.825 73.1358 -240.991L365.866 -638.945C369.06 -643.34 374.243 -645.809 379.667 -645.568C382.862 -645.448 385.935 -644.364 388.587 -642.437L785.764 -349.255C789.26 -346.666 791.55 -342.873 792.153 -338.597C792.816 -334.322 791.731 -330.047 789.2 -326.494L496.47 71.4596C493.276 75.795 488.093 78.2638 482.668 78.0229ZM379.607 -644.183C374.665 -644.424 369.904 -642.136 367.011 -638.162L74.2809 -240.208C69.3991 -233.584 70.8456 -224.251 77.415 -219.374L474.592 73.8079C477.003 75.5541 479.775 76.5778 482.729 76.6982C487.671 76.9391 492.432 74.6509 495.325 70.6768L788.055 -327.277C790.405 -330.469 791.37 -334.382 790.767 -338.357C790.164 -342.27 788.115 -345.763 784.921 -348.111L387.744 -641.293C385.393 -643.039 382.56 -644.063 379.607 -644.183Z" fill="#1FACF3"/>
<path d="M466.216 80.3093C463.021 80.1888 459.948 79.0448 457.356 77.1179L74.6434 -213.776C71.2683 -216.305 69.0986 -220.038 68.5562 -224.253C67.9535 -228.468 69.0986 -232.623 71.63 -235.995L362.13 -619.437C365.264 -623.592 370.266 -625.94 375.449 -625.699C378.644 -625.579 381.717 -624.435 384.309 -622.508L767.022 -331.614C773.953 -326.315 775.339 -316.38 770.035 -309.395L479.535 74.047C476.341 78.2018 471.399 80.5501 466.216 80.3093ZM375.329 -624.374C370.568 -624.555 366.047 -622.448 363.154 -618.654L72.6545 -235.212C70.304 -232.141 69.3397 -228.347 69.8219 -224.494C70.3643 -220.64 72.3532 -217.268 75.4269 -214.92L458.2 76.0341C460.55 77.8405 463.323 78.8641 466.276 78.9846C471.037 79.1652 475.557 77.0577 478.45 73.2642L768.95 -310.178C773.772 -316.561 772.506 -325.653 766.178 -330.47L383.465 -621.364C381.055 -623.23 378.282 -624.194 375.329 -624.374Z" fill="#1FACF3"/>
<path d="M449.702 82.5995C446.507 82.479 443.434 81.335 440.902 79.3479L72.6544 -209.318C69.3999 -211.847 67.3507 -215.52 66.8685 -219.614C66.3864 -223.709 67.4712 -227.743 70.0026 -230.995L358.272 -599.986C361.346 -603.9 366.108 -606.128 371.11 -605.887C374.304 -605.767 377.378 -604.622 379.909 -602.635L748.157 -313.97C751.412 -311.441 753.461 -307.768 753.943 -303.673C754.425 -299.579 753.34 -295.544 750.809 -292.293L462.539 76.6985C459.465 80.6124 454.704 82.8403 449.702 82.5995ZM371.05 -604.502C366.529 -604.683 362.13 -602.696 359.357 -599.143L71.0874 -230.152C68.7972 -227.201 67.7726 -223.528 68.1945 -219.795C68.6766 -216.062 70.545 -212.75 73.4982 -210.402L441.746 78.264C444.036 80.0705 446.869 81.0941 449.762 81.2145C454.282 81.3952 458.682 79.4081 461.454 75.8555L749.724 -293.136C752.014 -296.086 753.039 -299.759 752.617 -303.492C752.135 -307.226 750.267 -310.538 747.313 -312.886L379.066 -601.552C376.775 -603.358 374.003 -604.382 371.05 -604.502Z" fill="#1FACF3"/>
<path d="M433.248 84.8876C430.054 84.7672 426.98 83.6231 424.509 81.5758L70.726 -204.862C64.2772 -210.101 63.3128 -219.554 68.496 -225.997L354.536 -580.477C357.489 -584.15 362.13 -586.257 366.891 -586.076C370.086 -585.956 373.159 -584.812 375.691 -582.765L729.474 -296.327C732.608 -293.798 734.536 -290.185 734.958 -286.211C735.38 -282.237 734.235 -278.323 731.704 -275.192L445.604 79.3479C442.59 83.021 438.01 85.1285 433.248 84.8876ZM366.771 -584.692C362.431 -584.872 358.273 -583.006 355.561 -579.634L69.5206 -225.154C64.8196 -219.313 65.7236 -210.642 71.5698 -205.946L425.353 80.492C427.643 82.3586 430.416 83.3823 433.309 83.5027C437.648 83.6833 441.807 81.8167 444.519 78.4447L730.559 -276.035C732.849 -278.865 733.873 -282.418 733.512 -286.091C733.15 -289.703 731.342 -293.015 728.509 -295.303L374.726 -581.741C372.436 -583.547 369.664 -584.571 366.771 -584.692Z" fill="#1FACF3"/>
<path d="M416.734 87.1751C413.54 87.0547 410.466 85.8504 407.995 83.8032L68.6768 -200.407C65.6633 -202.936 63.8552 -206.428 63.4936 -210.342C63.132 -214.256 64.3374 -218.049 66.8687 -221.06L350.619 -561.028C353.572 -564.581 357.911 -566.447 362.492 -566.267C365.746 -566.146 368.76 -564.942 371.231 -562.895L710.549 -278.685C716.757 -273.506 717.54 -264.234 712.357 -258.092L428.607 81.9365C425.654 85.4891 421.375 87.416 416.734 87.1751ZM362.431 -564.882C358.273 -565.062 354.355 -563.316 351.703 -560.125L67.8933 -220.157C65.6031 -217.447 64.5182 -214.015 64.8798 -210.462C65.1812 -206.91 66.8687 -203.718 69.5809 -201.43L408.899 82.7795C411.129 84.6461 413.902 85.73 416.795 85.8504C420.953 86.0311 424.871 84.2849 427.523 81.0935L711.333 -258.874C716.034 -264.474 715.25 -272.904 709.645 -277.541L370.327 -561.751C368.097 -563.677 365.385 -564.761 362.431 -564.882Z" fill="#1FACF3"/>
<path d="M400.28 89.4649C397.026 89.3445 394.073 88.1402 391.602 85.9725L66.748 -196.009C63.8551 -198.478 62.1675 -201.971 61.8662 -205.764C61.6251 -209.558 62.8305 -213.231 65.3015 -216.121L346.821 -541.638C349.714 -544.949 353.813 -546.756 358.212 -546.515C361.467 -546.394 364.42 -545.19 366.891 -543.022L691.745 -261.04C694.638 -258.572 696.325 -255.079 696.627 -251.286C696.868 -247.492 695.662 -243.819 693.191 -240.929L411.671 84.5876C408.779 87.8994 404.62 89.7058 400.28 89.4649ZM358.152 -545.07C354.174 -545.25 350.437 -543.625 347.846 -540.614L66.3261 -215.157C64.0961 -212.568 62.951 -209.256 63.1921 -205.824C63.4332 -202.392 65.0002 -199.261 67.5918 -197.033L392.445 84.9489C394.675 86.8758 397.388 87.9596 400.28 88.08C404.258 88.2607 407.995 86.6349 410.587 83.6242L692.106 -241.892C694.336 -244.482 695.481 -247.793 695.24 -251.226C694.999 -254.658 693.432 -257.789 690.841 -260.017L365.987 -541.999C363.757 -543.865 361.045 -544.949 358.152 -545.07Z" fill="#1FACF3"/>
<path d="M383.766 91.813C380.572 91.6926 377.498 90.4281 375.148 88.2604L64.7586 -191.433C61.9862 -193.902 60.4192 -197.334 60.1781 -201.007C59.9973 -204.68 61.263 -208.233 63.734 -211.003L343.024 -522.008C345.796 -525.079 349.774 -526.765 353.933 -526.584C357.127 -526.464 360.201 -525.199 362.551 -523.032L672.94 -243.338C675.712 -240.869 677.279 -237.437 677.521 -233.764C677.701 -230.091 676.436 -226.538 673.965 -223.768L394.675 87.2367C391.902 90.3076 387.925 91.9936 383.766 91.813ZM353.872 -525.26C350.136 -525.44 346.58 -523.935 344.048 -521.105L64.6984 -210.1C62.4684 -207.631 61.3233 -204.44 61.5041 -201.068C61.6849 -197.756 63.1313 -194.685 65.6024 -192.457L375.991 87.2367C378.161 89.1636 380.873 90.3076 383.766 90.4281C387.503 90.6087 391.059 89.1034 393.59 86.2733L672.88 -224.732C675.11 -227.201 676.255 -230.392 676.074 -233.764C675.893 -237.076 674.447 -240.147 671.976 -242.374L361.587 -522.068C359.477 -523.995 356.705 -525.139 353.872 -525.26Z" fill="#1FACF3"/>
<path d="M367.313 94.0992C364.119 93.9788 361.045 92.6541 358.695 90.4864L62.7704 -186.98C60.1185 -189.448 58.6118 -192.76 58.4913 -196.373C58.3707 -199.986 59.6364 -203.418 62.1074 -206.007L339.167 -502.561C341.879 -505.451 345.676 -506.957 349.594 -506.836C352.788 -506.716 355.862 -505.391 358.212 -503.223L654.137 -225.757C659.561 -220.699 659.802 -212.149 654.739 -206.73L377.74 89.824C375.028 92.7143 371.231 94.2798 367.313 94.0992ZM349.534 -505.451C345.978 -505.632 342.603 -504.187 340.192 -501.598L63.132 -205.104C60.902 -202.756 59.7569 -199.685 59.8775 -196.433C59.998 -193.182 61.3239 -190.231 63.6745 -188.003L359.599 89.4627C361.708 91.4498 364.42 92.5938 367.313 92.7143C370.869 92.8949 374.244 91.4498 376.655 88.9208L653.715 -207.633C658.295 -212.51 657.994 -220.157 653.172 -224.734L357.248 -502.2C355.139 -504.187 352.427 -505.331 349.534 -505.451Z" fill="#1FACF3"/>
<path d="M350.8 96.3872C347.605 96.2668 344.532 94.9421 342.241 92.6539L60.7818 -182.584C55.5986 -187.642 55.5383 -195.952 60.5407 -201.13L335.371 -483.172C337.962 -485.822 341.578 -487.267 345.315 -487.086C348.509 -486.966 351.583 -485.641 353.873 -483.353L635.333 -208.115C640.516 -203.057 640.576 -194.747 635.574 -189.569L360.744 92.4733C358.152 95.1227 354.536 96.5678 350.8 96.3872ZM345.255 -485.641C341.94 -485.761 338.685 -484.497 336.335 -482.088L61.505 -200.106C56.9848 -195.47 57.1053 -188.064 61.6858 -183.487L343.145 91.7507C345.195 93.7378 347.907 94.9421 350.8 95.0625C354.114 95.1829 357.369 93.9184 359.72 91.5099L634.549 -190.532C639.07 -195.169 638.949 -202.575 634.369 -207.091L352.909 -482.329C350.86 -484.376 348.148 -485.52 345.255 -485.641Z" fill="#1FACF3"/>
<path d="M334.346 98.7366C331.091 98.6161 328.078 97.2312 325.848 94.9431L58.7925 -178.067C53.9107 -183.065 53.9709 -191.133 58.9733 -196.071L331.573 -463.601C334.104 -466.07 337.54 -467.395 341.035 -467.214C344.29 -467.094 347.304 -465.709 349.534 -463.421L616.528 -190.411C621.41 -185.413 621.35 -177.344 616.348 -172.407L343.748 95.1237C341.277 97.5323 337.841 98.857 334.346 98.7366ZM340.975 -465.89C337.841 -466.01 334.767 -464.866 332.537 -462.638L59.9376 -195.107C55.4777 -190.712 55.4174 -183.546 59.7568 -179.03L326.812 93.9797C328.861 96.0269 331.513 97.2312 334.406 97.3517C337.54 97.4721 340.614 96.328 342.844 94.1001L615.443 -173.43C619.903 -177.826 619.964 -184.992 615.624 -189.508L348.629 -462.518C346.52 -464.565 343.808 -465.769 340.975 -465.89Z" fill="#1FACF3"/>
<path d="M317.832 101.025C314.577 100.905 311.564 99.5199 309.334 97.1113L56.8035 -173.611C54.5736 -176.019 53.3682 -179.15 53.4887 -182.462C53.6092 -185.774 54.9954 -188.845 57.4062 -191.073L327.776 -444.152C330.187 -446.44 333.381 -447.644 336.756 -447.464C340.011 -447.343 343.024 -445.958 345.254 -443.55L597.724 -172.768C602.365 -167.77 602.124 -159.942 597.121 -155.306L326.812 97.7134C324.341 100.002 321.207 101.206 317.832 101.025ZM336.636 -446.079C333.683 -446.199 330.85 -445.176 328.68 -443.128L58.3103 -190.049C56.1406 -188.062 54.9352 -185.352 54.8146 -182.402C54.6941 -179.451 55.779 -176.682 57.7679 -174.514L310.358 96.2081C312.347 98.3156 314.999 99.5801 317.892 99.7005C320.845 99.8209 323.678 98.7973 325.848 96.75L596.217 -156.329C600.617 -160.484 600.858 -167.409 596.76 -171.864L344.169 -442.647C342.241 -444.754 339.529 -445.958 336.636 -446.079Z" fill="#1FACF3"/>
<path d="M301.378 103.373C298.123 103.253 295.11 101.808 292.94 99.339L54.8144 -169.155C50.4147 -174.093 50.8969 -181.679 55.839 -186.075L323.979 -424.643C326.329 -426.75 329.343 -427.774 332.477 -427.653C335.731 -427.533 338.745 -426.088 340.915 -423.619L578.98 -155.125C583.38 -150.188 582.898 -142.601 577.955 -138.205L309.816 100.363C307.525 102.47 304.512 103.494 301.378 103.373ZM332.356 -426.329C329.584 -426.449 326.932 -425.486 324.823 -423.679L56.743 -185.051C52.3434 -181.138 51.9817 -174.454 55.839 -170.058L293.965 98.4357C295.893 100.603 298.545 101.868 301.438 101.988C304.21 102.109 306.862 101.145 308.972 99.339L577.112 -139.229C581.511 -143.143 581.873 -149.826 578.016 -154.222L339.89 -422.716C337.901 -424.944 335.249 -426.208 332.356 -426.329Z" fill="#1FACF3"/>
<path d="M284.865 105.72C281.61 105.6 278.537 104.095 276.487 101.566L52.8266 -164.701C50.8377 -167.109 49.8734 -170.12 50.1145 -173.191C50.3555 -176.262 51.8623 -179.092 54.2128 -181.079L320.062 -405.195C322.292 -407.062 325.125 -408.025 328.078 -407.905C331.333 -407.784 334.407 -406.279 336.456 -403.75L560.177 -137.484C564.275 -132.546 563.672 -125.2 558.791 -121.106L292.881 103.011C290.651 104.877 287.818 105.841 284.865 105.72ZM328.078 -406.52C325.487 -406.64 323.016 -405.797 321.027 -404.111L55.1168 -180.055C53.0074 -178.309 51.7417 -175.78 51.5007 -173.07C51.2596 -170.361 52.1034 -167.651 53.8512 -165.544L277.512 100.723C279.38 102.89 282.032 104.275 284.925 104.396C287.517 104.516 289.988 103.673 291.977 101.987L557.826 -122.129C562.166 -125.802 562.708 -132.305 559.092 -136.641L335.431 -402.907C333.623 -405.075 330.911 -406.399 328.078 -406.52Z" fill="#1FACF3"/>
<path d="M268.41 108.069C265.156 107.948 262.082 106.383 260.033 103.794L50.8368 -160.245C48.9684 -162.593 48.1247 -165.543 48.4863 -168.554C48.8479 -171.565 50.2944 -174.214 52.7051 -176.141L316.325 -385.746C318.434 -387.432 321.086 -388.275 323.798 -388.215C327.053 -388.094 330.127 -386.529 332.176 -383.939L541.372 -119.841C545.229 -114.964 544.446 -107.858 539.564 -103.945L275.884 105.66C273.774 107.346 271.122 108.189 268.41 108.069ZM323.738 -386.769C321.327 -386.89 319.037 -386.107 317.169 -384.602L53.5489 -175.057C51.4998 -173.431 50.1738 -171.023 49.8725 -168.434C49.5711 -165.784 50.2944 -163.195 51.9819 -161.148L261.118 102.951C262.926 105.178 265.578 106.563 268.471 106.684C270.821 106.804 273.172 106.021 275.04 104.516L538.66 -105.089C542.939 -108.521 543.662 -114.783 540.287 -119.058L331.091 -383.096C329.283 -385.264 326.631 -386.649 323.738 -386.769Z" fill="#1FACF3"/>
<path d="M251.896 110.42C248.582 110.299 245.568 108.673 243.579 106.024L48.8477 -155.786C45.2316 -160.664 46.2561 -167.528 51.0777 -171.141L312.467 -366.234C314.456 -367.739 316.988 -368.522 319.459 -368.402C322.774 -368.281 325.787 -366.656 327.776 -364.006L522.568 -102.196C526.184 -97.3186 525.159 -90.4542 520.338 -86.8414L258.948 108.252C256.899 109.757 254.428 110.54 251.896 110.42ZM319.459 -367.017C317.289 -367.137 315.059 -366.415 313.311 -365.15L51.9215 -170.057C47.7026 -166.866 46.7986 -160.844 49.9326 -156.629L244.664 105.181C246.412 107.529 249.064 108.914 251.957 109.035C254.126 109.155 256.356 108.432 258.104 107.168L519.494 -87.9252C523.713 -91.1166 524.617 -97.138 521.483 -101.353L326.751 -363.163C325.003 -365.512 322.352 -366.896 319.459 -367.017Z" fill="#1FACF3"/>
<path d="M235.443 112.826C232.128 112.706 229.115 111.02 227.186 108.25L46.9194 -151.332C43.6046 -156.149 44.7497 -162.773 49.5713 -166.145L308.731 -346.787C310.66 -348.111 312.89 -348.774 315.24 -348.653C318.555 -348.533 321.568 -346.847 323.497 -344.077L503.764 -84.555C507.078 -79.7379 505.933 -73.1144 501.112 -69.7424L241.952 110.899C240.023 112.224 237.733 112.887 235.443 112.826ZM315.18 -347.268C313.131 -347.329 311.202 -346.787 309.514 -345.643L50.3548 -165.001C46.1359 -162.05 45.1113 -156.27 48.0645 -152.115L228.271 107.467C229.958 109.876 232.55 111.321 235.503 111.441C237.552 111.502 239.481 110.96 241.169 109.816L500.328 -70.8263C504.547 -73.7767 505.572 -79.5573 502.619 -83.7723L322.352 -343.355C320.725 -345.703 318.073 -347.148 315.18 -347.268Z" fill="#1FACF3"/>
<path d="M218.929 115.176C215.614 115.056 212.54 113.249 210.732 110.48L44.9302 -146.875C41.8564 -151.632 43.2426 -158.075 48.0039 -161.146L304.934 -327.276C306.742 -328.42 308.851 -329.022 310.961 -328.902C314.275 -328.781 317.349 -326.975 319.157 -324.205L484.959 -66.9107C488.033 -62.1538 486.647 -55.7109 481.885 -52.64L224.956 113.55C223.148 114.695 221.038 115.297 218.929 115.176ZM310.9 -327.577C309.032 -327.637 307.224 -327.155 305.657 -326.132L48.7272 -160.001C44.5686 -157.292 43.3632 -151.752 46.0753 -147.597L211.877 109.697C213.444 112.105 216.096 113.671 218.989 113.791C220.857 113.852 222.666 113.37 224.233 112.346L481.162 -53.7841C485.321 -56.4937 486.526 -62.0334 483.814 -66.1882L318.012 -323.482C316.445 -325.891 313.793 -327.456 310.9 -327.577Z" fill="#1FACF3"/>
<path d="M202.416 117.585C199.041 117.464 195.967 115.598 194.219 112.707L42.9422 -142.419C40.1095 -147.176 41.6765 -153.318 46.4378 -156.148L301.138 -307.827C302.825 -308.85 304.754 -309.332 306.682 -309.212C310.057 -309.091 313.131 -307.225 314.879 -304.334L466.156 -49.2078C468.989 -44.4509 467.422 -38.3091 462.66 -35.479L207.961 116.14C206.273 117.163 204.405 117.645 202.416 117.585ZM306.562 -307.827C304.874 -307.887 303.247 -307.465 301.801 -306.622L47.1008 -155.004C43.0025 -152.535 41.6765 -147.236 44.0873 -143.142L195.425 111.985C196.931 114.514 199.583 116.079 202.476 116.2C204.164 116.26 205.791 115.839 207.237 114.996L461.937 -36.6833C466.036 -39.1521 467.361 -44.4509 464.951 -48.5455L313.613 -303.612C312.167 -306.141 309.515 -307.706 306.562 -307.827Z" fill="#1FACF3"/>
<path d="M185.962 119.992C182.587 119.872 179.453 117.885 177.825 114.874L40.9529 -137.964C38.4216 -142.661 40.1694 -148.622 44.8704 -151.151L297.28 -288.318C298.847 -289.161 300.595 -289.583 302.343 -289.463C305.718 -289.342 308.852 -287.355 310.479 -284.344L447.351 -31.5661C449.883 -26.8695 448.135 -20.9083 443.434 -18.3793L191.024 118.788C189.457 119.631 187.71 120.053 185.962 119.992ZM302.282 -288.138C300.776 -288.198 299.269 -287.837 297.943 -287.114L45.5334 -149.947C41.4953 -147.719 39.9886 -142.661 42.1583 -138.566L179.031 114.212C180.417 116.801 183.069 118.487 186.022 118.607C187.529 118.668 189.036 118.306 190.361 117.584L442.771 -19.5836C446.809 -21.8115 448.316 -26.8695 446.146 -30.964L309.274 -283.802C307.887 -286.392 305.235 -288.017 302.282 -288.138Z" fill="#1FACF3"/>
<path d="M169.448 122.401C166.012 122.22 162.878 120.233 161.371 117.102L38.9636 -133.509C36.6734 -138.205 38.602 -143.865 43.303 -146.153L293.483 -268.809C294.929 -269.532 296.496 -269.833 298.063 -269.773C301.559 -269.592 304.632 -267.605 306.139 -264.474L428.547 -13.9237C430.837 -9.22698 428.909 -3.56687 424.207 -1.27873L174.028 121.437C172.582 122.16 171.015 122.461 169.448 122.401ZM298.003 -268.448C296.677 -268.508 295.291 -268.207 294.085 -267.605L43.9057 -144.949C39.9279 -142.962 38.2404 -138.145 40.169 -134.111L162.577 116.5C163.903 119.149 166.555 120.895 169.508 121.016C170.834 121.076 172.22 120.775 173.425 120.173L423.605 -2.48301C427.583 -4.47007 429.27 -9.28719 427.342 -13.3215L304.934 -263.932C303.608 -266.581 300.956 -268.328 298.003 -268.448Z" fill="#1FACF3"/>
</g>
</g>
<defs>
<clipPath id="clip0_35575_7989">
<rect width="123" height="381" fill="white" transform="translate(0 123) rotate(-90)"/>
</clipPath>
</defs>
</svg>
