<svg width="23" height="15" viewBox="0 0 23 15" fill="none" xmlns="http://www.w3.org/2000/svg">
<path d="M2.21875 9.1875H0.531248V8.81625C0.530741 8.65828 0.574593 8.50334 0.65781 8.36906L3.56031 3.67781C3.63631 3.55622 3.74204 3.456 3.86753 3.38661C3.99301 3.31722 4.13411 3.28096 4.2775 3.28125H8.96875V1.59375C8.96875 1.36997 9.05764 1.15536 9.21588 0.997129C9.37411 0.838895 9.58872 0.75 9.8125 0.75H21.625C21.8488 0.75 22.0634 0.838895 22.2216 0.997129C22.3799 1.15536 22.4688 1.36997 22.4688 1.59375V12.5625C22.4688 12.7863 22.3799 13.0009 22.2216 13.1591C22.0634 13.3174 21.8488 13.4062 21.625 13.4062H18.8575C18.7081 13.6581 18.4957 13.8667 18.2413 14.0116C17.9868 14.1564 17.6991 14.2326 17.4062 14.2326C17.1134 14.2326 16.8257 14.1564 16.5712 14.0116C16.3168 13.8667 16.1044 13.6581 15.955 13.4062H7.045C6.89558 13.6581 6.68321 13.8667 6.42877 14.0116C6.17432 14.1564 5.88655 14.2326 5.59375 14.2326C5.30094 14.2326 5.01318 14.1564 4.75873 14.0116C4.50428 13.8667 4.29192 13.6581 4.1425 13.4062H1.375C1.15122 13.4062 0.936611 13.3174 0.778376 13.1591C0.620142 13.0009 0.531248 12.7863 0.531248 12.5625V10.875H2.21875C2.44253 10.875 2.65714 10.7861 2.81537 10.6279C2.9736 10.4696 3.0625 10.255 3.0625 10.0312C3.0625 9.80747 2.9736 9.59286 2.81537 9.43463C2.65714 9.27639 2.44253 9.1875 2.21875 9.1875ZM14.875 8.34375C14.875 8.56753 14.9639 8.78214 15.1221 8.94037C15.2804 9.09861 15.495 9.1875 15.7187 9.1875H19.0937C19.3175 9.1875 19.5321 9.09861 19.6904 8.94037C19.8486 8.78214 19.9375 8.56753 19.9375 8.34375V4.125C19.9375 3.90122 19.8486 3.68661 19.6904 3.52838C19.5321 3.37015 19.3175 3.28125 19.0937 3.28125H15.7187C15.495 3.28125 15.2804 3.37015 15.1221 3.52838C14.9639 3.68661 14.875 3.90122 14.875 4.125V8.34375Z" fill="#1FACF3"/>
</svg>
