<svg width="48" height="61" viewBox="0 0 48 61" fill="none" xmlns="http://www.w3.org/2000/svg">
<path d="M12.0219 4.40341C13.802 4.40341 15.5833 4.38395 17.3634 4.41028C18.957 4.43317 19.5499 5.04677 19.606 6.63228C19.7457 10.6264 19.5602 10.8187 15.5615 10.8187C12.6515 10.8187 9.74149 10.829 6.83261 10.8187C5.24595 10.8107 4.63694 10.188 4.59801 8.61274C4.49498 4.53619 4.61519 4.41028 8.6345 4.40799L12.0219 4.40341Z" fill="#B9F3EF"/>
<path d="M0.162034 15.1826H47.6874C47.7149 15.66 47.7642 16.1156 47.7642 16.5701C47.7642 28.2148 47.771 43.1232 47.7642 54.7679C47.7642 58.7391 45.7036 60.8031 41.7392 60.8054C29.8335 60.8131 17.9278 60.8131 6.02213 60.8054C2.07151 60.8054 0.021211 58.7322 0.0143424 54.7507C0.00403939 48.4064 -0.0119875 42.0631 0.0143424 35.7188C0.0269349 32.0292 0.121958 28.3395 0.160881 24.6499C0.176908 22.6191 0.162034 17.3279 0.162034 15.1826ZM37.3409 39.9167C37.4016 37.267 36.6783 34.6584 35.2618 32.4183C33.8454 30.1782 31.7989 28.4063 29.3791 27.325C26.9594 26.2437 24.2742 25.9012 21.6604 26.3403C19.0467 26.7795 16.6209 27.9809 14.6874 29.7936C12.7539 31.6064 11.3989 33.9498 10.7924 36.5299C10.1859 39.1099 10.3548 41.8116 11.2781 44.296C12.2014 46.7803 13.8379 48.9367 15.9822 50.4944C18.1265 52.0521 20.6831 52.9418 23.3312 53.0518C25.1173 53.1253 26.9002 52.8422 28.5758 52.219C30.2513 51.5958 31.7859 50.645 33.0899 49.4222C34.394 48.1994 35.4413 46.7291 36.1708 45.097C36.9003 43.4649 37.2973 41.7039 37.3387 39.9167H37.3409Z" fill="url(#paint0_linear_35588_13276)"/>
<g filter="url(#filter0_d_35588_13276)">
<path d="M23.8784 53.0908C31.3515 53.0908 37.4097 47.0327 37.4097 39.5596C37.4097 32.0865 31.3515 26.0283 23.8784 26.0283C16.4053 26.0283 10.3472 32.0865 10.3472 39.5596C10.3472 47.0327 16.4053 53.0908 23.8784 53.0908Z" fill="white"/>
</g>
<path d="M0.139204 15.1826C0.139204 13.4506 0.139204 11.7689 0.139204 10.0872C0.139204 8.56693 0.122035 7.04668 0.151799 5.52641C0.110618 4.8059 0.219854 4.08468 0.472545 3.40867C0.725236 2.73267 1.11585 2.11666 1.61956 1.59982C2.12326 1.08298 2.72902 0.67663 3.3983 0.406622C4.06758 0.136615 4.78572 0.00885962 5.50706 0.0314814C17.8088 -0.0104938 30.1106 -0.0104938 42.4124 0.0314814C43.0903 0.00234839 43.7671 0.109205 44.4031 0.345747C45.039 0.582288 45.6211 0.943727 46.1152 1.40877C46.6093 1.87382 47.0053 2.43306 47.2798 3.05353C47.5544 3.67401 47.702 4.34316 47.7139 5.02156C47.8283 8.22693 47.7482 11.4483 47.7425 14.6629C47.7178 14.8404 47.6713 15.0142 47.604 15.1803L0.139204 15.1826ZM12.117 4.40796H8.73876C4.73204 4.40796 4.61071 4.53733 4.71374 8.61273C4.7538 10.1879 5.36053 10.8107 6.94261 10.8187C9.84462 10.8347 12.7455 10.8187 15.6429 10.8187C19.6302 10.8187 19.8156 10.6275 19.676 6.63226C19.6199 5.04674 19.028 4.43315 17.4391 4.41025C15.6727 4.3885 13.896 4.4091 12.1204 4.40681L12.117 4.40796ZM28.1301 9.52283C28.5071 9.53387 28.8788 9.43266 29.1981 9.23206C29.5173 9.03145 29.7698 8.7405 29.9235 8.39613C30.0771 8.05176 30.1249 7.66949 30.0609 7.29789C29.9968 6.92628 29.8238 6.5821 29.5638 6.30901C29.3037 6.03593 28.9684 5.84627 28.6004 5.76412C28.2324 5.68196 27.8483 5.71101 27.4968 5.84758C27.1453 5.98415 26.8423 6.22208 26.6263 6.53117C26.4103 6.84026 26.2911 7.20657 26.2836 7.58358C26.2783 8.0843 26.4688 8.56729 26.8147 8.92941C27.1606 9.29153 27.6343 9.50408 28.1347 9.52168L28.1301 9.52283ZM36.5626 7.66257C36.5681 7.28976 36.4632 6.92365 36.261 6.61042C36.0587 6.29719 35.7683 6.05087 35.4262 5.90252C35.0841 5.75416 34.7058 5.71041 34.3389 5.7768C33.972 5.84319 33.633 6.01674 33.3646 6.27556C33.0963 6.53438 32.9105 6.86687 32.8309 7.23111C32.7512 7.59535 32.7812 7.97501 32.9171 8.32222C33.0529 8.66944 33.2886 8.96863 33.5943 9.1821C33.9 9.39556 34.262 9.51372 34.6348 9.52168C35.1346 9.52087 35.6147 9.32681 35.9746 8.98008C36.3346 8.63335 36.5465 8.16082 36.566 7.66141L36.5626 7.66257ZM43.0603 7.68318C43.0692 7.31107 42.9677 6.94466 42.7687 6.63014C42.5696 6.31562 42.2819 6.06705 41.9419 5.91574C41.6018 5.76443 41.2246 5.71717 40.8577 5.77989C40.4908 5.84261 40.1507 6.01252 39.8802 6.26821C39.6097 6.52389 39.421 6.85392 39.3377 7.2167C39.2545 7.57948 39.2805 7.95879 39.4125 8.30682C39.5444 8.65485 39.7764 8.95603 40.0792 9.17242C40.3821 9.38882 40.7422 9.51075 41.1142 9.52283C41.6157 9.53075 42.1004 9.34271 42.4654 8.99872C42.8303 8.65473 43.0466 8.18192 43.0683 7.68087L43.0603 7.68318Z" fill="url(#paint1_linear_35588_13276)"/>
<g filter="url(#filter1_d_35588_13276)">
<path d="M23.7871 50.1039C30.0912 50.1039 35.2017 45.2071 35.2017 39.1667C35.2017 33.1262 30.0912 28.2295 23.7871 28.2295C17.483 28.2295 12.3726 33.1262 12.3726 39.1667C12.3726 45.2071 17.483 50.1039 23.7871 50.1039Z" fill="#D1D3D4"/>
</g>
<path d="M35.0876 40.4832C34.913 43.2584 33.7167 45.8706 31.7295 47.8155C29.7422 49.7605 27.1049 50.9004 24.3266 51.0152C19.0836 51.3781 13.6298 47.3095 12.7472 42.3286C12.6781 41.84 12.7757 41.3423 13.0243 40.9159C13.4515 40.1666 14.0256 39.5113 14.7121 38.9891C15.3986 38.4669 16.1834 38.0885 17.0196 37.8768C17.8558 37.6651 18.7261 37.6243 19.5784 37.7568C20.4307 37.8893 21.2475 38.1925 21.9799 38.6482C23.104 39.2881 24.1469 40.0723 25.2173 40.8049C29.0717 43.4494 31.3876 43.3933 35.0876 40.4832Z" fill="url(#paint2_radial_35588_13276)"/>
<path d="M34.7316 8.78838C35.3525 8.78838 35.8558 8.28507 35.8558 7.66421C35.8558 7.04335 35.3525 6.54004 34.7316 6.54004C34.1107 6.54004 33.6074 7.04335 33.6074 7.66421C33.6074 8.28507 34.1107 8.78838 34.7316 8.78838Z" fill="white"/>
<path d="M41.2067 8.78838C41.8276 8.78838 42.3309 8.28507 42.3309 7.66421C42.3309 7.04335 41.8276 6.54004 41.2067 6.54004C40.5858 6.54004 40.0825 7.04335 40.0825 7.66421C40.0825 8.28507 40.5858 8.78838 41.2067 8.78838Z" fill="white"/>
<defs>
<filter id="filter0_d_35588_13276" x="8.66042" y="26.0283" width="33.8095" height="33.8095" filterUnits="userSpaceOnUse" color-interpolation-filters="sRGB">
<feFlood flood-opacity="0" result="BackgroundImageFix"/>
<feColorMatrix in="SourceAlpha" type="matrix" values="0 0 0 0 0 0 0 0 0 0 0 0 0 0 0 0 0 0 127 0" result="hardAlpha"/>
<feOffset dx="1.68675" dy="3.37349"/>
<feGaussianBlur stdDeviation="1.68675"/>
<feColorMatrix type="matrix" values="0 0 0 0 0.00392157 0 0 0 0 0.133333 0 0 0 0 0.239216 0 0 0 0.212 0"/>
<feBlend mode="normal" in2="BackgroundImageFix" result="effect1_dropShadow_35588_13276"/>
<feBlend mode="normal" in="SourceGraphic" in2="effect1_dropShadow_35588_13276" result="shape"/>
</filter>
<filter id="filter1_d_35588_13276" x="11.5292" y="28.2295" width="27.8893" height="27.7776" filterUnits="userSpaceOnUse" color-interpolation-filters="sRGB">
<feFlood flood-opacity="0" result="BackgroundImageFix"/>
<feColorMatrix in="SourceAlpha" type="matrix" values="0 0 0 0 0 0 0 0 0 0 0 0 0 0 0 0 0 0 127 0" result="hardAlpha"/>
<feOffset dx="1.68675" dy="3.37349"/>
<feGaussianBlur stdDeviation="1.26506"/>
<feColorMatrix type="matrix" values="0 0 0 0 0 0 0 0 0 0.305882 0 0 0 0 0.556863 0 0 0 0.561 0"/>
<feBlend mode="normal" in2="BackgroundImageFix" result="effect1_dropShadow_35588_13276"/>
<feBlend mode="normal" in="SourceGraphic" in2="effect1_dropShadow_35588_13276" result="shape"/>
</filter>
<linearGradient id="paint0_linear_35588_13276" x1="23.8836" y1="61.0393" x2="23.8836" y2="14.4069" gradientUnits="userSpaceOnUse">
<stop stop-color="#019EED"/>
<stop offset="1" stop-color="#2EB3F5"/>
</linearGradient>
<linearGradient id="paint1_linear_35588_13276" x1="-0.532695" y1="-0.971686" x2="7.10395" y2="27.9033" gradientUnits="userSpaceOnUse">
<stop stop-color="#2AD2FF"/>
<stop offset="1" stop-color="#72E3C6"/>
</linearGradient>
<radialGradient id="paint2_radial_35588_13276" cx="0" cy="0" r="1" gradientUnits="userSpaceOnUse" gradientTransform="translate(-116.307 37.4536) scale(14.9922 15)">
<stop stop-color="#00D8FF"/>
<stop offset="1" stop-color="#0092FF"/>
</radialGradient>
</defs>
</svg>
