<svg width="23" height="23" viewBox="0 0 23 23" fill="none" xmlns="http://www.w3.org/2000/svg">
<path d="M15.8542 3.76301V2.33301C15.8542 1.95717 15.5425 1.64551 15.1667 1.64551C14.7909 1.64551 14.4792 1.95717 14.4792 2.33301V3.70801H8.52088V2.33301C8.52088 1.95717 8.20921 1.64551 7.83338 1.64551C7.45755 1.64551 7.14588 1.95717 7.14588 2.33301V3.76301C4.67088 3.99217 3.47005 5.46801 3.28671 7.65884C3.26838 7.92467 3.48838 8.14467 3.74505 8.14467H19.255C19.5209 8.14467 19.7409 7.91551 19.7134 7.65884C19.53 5.46801 18.3292 3.99217 15.8542 3.76301Z" fill="#FE725C"/>
<path d="M18.8333 9.51953H4.16667C3.6625 9.51953 3.25 9.93203 3.25 10.4362V16.0829C3.25 18.8329 4.625 20.6662 7.83333 20.6662H15.1667C18.375 20.6662 19.75 18.8329 19.75 16.0829V10.4362C19.75 9.93203 19.3375 9.51953 18.8333 9.51953ZM8.9425 17.192C8.89667 17.2287 8.85083 17.2745 8.805 17.302C8.75 17.3387 8.695 17.3662 8.64 17.3845C8.585 17.412 8.53 17.4304 8.475 17.4395C8.41083 17.4487 8.35583 17.4579 8.29167 17.4579C8.1725 17.4579 8.05333 17.4304 7.94333 17.3845C7.82417 17.3387 7.7325 17.2745 7.64083 17.192C7.47583 17.0179 7.375 16.7795 7.375 16.5412C7.375 16.3029 7.47583 16.0645 7.64083 15.8904C7.7325 15.8079 7.82417 15.7437 7.94333 15.6979C8.10833 15.6245 8.29167 15.6062 8.475 15.6429C8.53 15.652 8.585 15.6704 8.64 15.6979C8.695 15.7162 8.75 15.7437 8.805 15.7804C8.85083 15.817 8.89667 15.8537 8.9425 15.8904C9.1075 16.0645 9.20833 16.3029 9.20833 16.5412C9.20833 16.7795 9.1075 17.0179 8.9425 17.192ZM8.9425 13.9837C8.76833 14.1487 8.53 14.2495 8.29167 14.2495C8.05333 14.2495 7.815 14.1487 7.64083 13.9837C7.47583 13.8095 7.375 13.5712 7.375 13.3329C7.375 13.0945 7.47583 12.8562 7.64083 12.682C7.8975 12.4254 8.30083 12.3429 8.64 12.4895C8.75917 12.5354 8.86 12.5995 8.9425 12.682C9.1075 12.8562 9.20833 13.0945 9.20833 13.3329C9.20833 13.5712 9.1075 13.8095 8.9425 13.9837ZM12.1508 17.192C11.9767 17.357 11.7383 17.4579 11.5 17.4579C11.2617 17.4579 11.0233 17.357 10.8492 17.192C10.6842 17.0179 10.5833 16.7795 10.5833 16.5412C10.5833 16.3029 10.6842 16.0645 10.8492 15.8904C11.1883 15.5512 11.8117 15.5512 12.1508 15.8904C12.3158 16.0645 12.4167 16.3029 12.4167 16.5412C12.4167 16.7795 12.3158 17.0179 12.1508 17.192ZM12.1508 13.9837C12.105 14.0204 12.0592 14.057 12.0133 14.0937C11.9583 14.1304 11.9033 14.1579 11.8483 14.1762C11.7933 14.2037 11.7383 14.222 11.6833 14.2312C11.6192 14.2404 11.5642 14.2495 11.5 14.2495C11.2617 14.2495 11.0233 14.1487 10.8492 13.9837C10.6842 13.8095 10.5833 13.5712 10.5833 13.3329C10.5833 13.0945 10.6842 12.8562 10.8492 12.682C10.9317 12.5995 11.0325 12.5354 11.1517 12.4895C11.4908 12.3429 11.8942 12.4254 12.1508 12.682C12.3158 12.8562 12.4167 13.0945 12.4167 13.3329C12.4167 13.5712 12.3158 13.8095 12.1508 13.9837ZM15.3592 17.192C15.185 17.357 14.9467 17.4579 14.7083 17.4579C14.47 17.4579 14.2317 17.357 14.0575 17.192C13.8925 17.0179 13.7917 16.7795 13.7917 16.5412C13.7917 16.3029 13.8925 16.0645 14.0575 15.8904C14.3967 15.5512 15.02 15.5512 15.3592 15.8904C15.5242 16.0645 15.625 16.3029 15.625 16.5412C15.625 16.7795 15.5242 17.0179 15.3592 17.192ZM15.3592 13.9837C15.3133 14.0204 15.2675 14.057 15.2217 14.0937C15.1667 14.1304 15.1117 14.1579 15.0567 14.1762C15.0017 14.2037 14.9467 14.222 14.8917 14.2312C14.8275 14.2404 14.7633 14.2495 14.7083 14.2495C14.47 14.2495 14.2317 14.1487 14.0575 13.9837C13.8925 13.8095 13.7917 13.5712 13.7917 13.3329C13.7917 13.0945 13.8925 12.8562 14.0575 12.682C14.1492 12.5995 14.2408 12.5354 14.36 12.4895C14.525 12.4162 14.7083 12.3979 14.8917 12.4345C14.9467 12.4437 15.0017 12.462 15.0567 12.4895C15.1117 12.5079 15.1667 12.5354 15.2217 12.572C15.2675 12.6087 15.3133 12.6454 15.3592 12.682C15.5242 12.8562 15.625 13.0945 15.625 13.3329C15.625 13.5712 15.5242 13.8095 15.3592 13.9837Z" fill="#FE725C"/>
</svg>
