<svg width="27" height="24" viewBox="0 0 27 24" fill="none" xmlns="http://www.w3.org/2000/svg">
<path fill-rule="evenodd" clip-rule="evenodd" d="M12.1983 2.06597C7.79752 2.69625 4.23828 5.61609 3.08348 9.54319C2.84682 10.348 2.81586 10.6318 2.81586 12C2.81586 13.3682 2.84682 13.652 3.08348 14.4568C4.13176 18.0219 7.11573 20.7373 11.0579 21.7136C11.9831 21.9427 12.2573 21.9682 13.7893 21.968C15.295 21.9678 15.6082 21.9396 16.494 21.7247C21.6259 20.4795 25.0983 16.1813 24.7995 11.4435C24.5257 7.10081 21.1423 3.36975 16.494 2.2845C15.3646 2.02078 13.2608 1.91372 12.1983 2.06597ZM11.9315 3.70519C10.1272 4.04147 8.71205 4.72012 7.353 5.90053C5.45882 7.54584 4.50053 9.59503 4.50053 12C4.50053 14.405 5.45882 16.4542 7.353 18.0995C9.1737 19.6809 11.2565 20.4375 13.7893 20.4375C16.3221 20.4375 18.4049 19.6809 20.2256 18.0995C22.1198 16.4542 23.0781 14.405 23.0781 12C23.0781 9.59503 22.1198 7.54584 20.2256 5.90053C18.827 4.68572 17.2661 3.96197 15.3958 3.66103C14.5711 3.52837 12.7562 3.55144 11.9315 3.70519ZM12.6949 6.1275C11.6792 6.42937 10.8418 7.24509 10.5833 8.18419C10.4092 8.81728 10.5085 9.81947 10.7995 10.3655C11.3158 11.3342 12.2841 11.9068 13.5287 11.9794C14.9656 12.0632 16.0491 11.5516 16.6823 10.4905C17.0194 9.92569 17.0404 9.8385 17.0404 9C17.0404 8.247 17.0017 8.03803 16.7903 7.64784C16.4714 7.05919 15.9224 6.56119 15.2821 6.27966C14.6673 6.00928 13.3527 5.93194 12.6949 6.1275ZM13.2324 7.59731C12.4715 7.80412 12.0308 8.62434 12.252 9.42197C12.6458 10.8429 14.9938 10.8103 15.3479 9.37894C15.6447 8.17912 14.5338 7.24359 13.2324 7.59731ZM9.50614 13.0783C7.87421 13.6025 7.79659 15.9156 9.36784 17.1988C10.4376 18.0725 11.8802 18.4957 13.7893 18.4957C15.6983 18.4957 17.141 18.0725 18.2107 17.1988C19.1185 16.4575 19.5537 15.2367 19.2609 14.2534C19.1047 13.729 18.5198 13.1815 17.9669 13.042C17.3133 12.8772 10.0351 12.9084 9.50614 13.0783ZM9.97099 14.9766C9.9712 15.2459 10.0476 15.5354 10.1642 15.7091C10.6276 16.3995 12.2659 16.9688 13.7893 16.9688C15.3126 16.9688 16.951 16.3995 17.4144 15.7091C17.531 15.5354 17.6074 15.2459 17.6076 14.9766L17.608 14.5312H13.7893H9.97058L9.97099 14.9766Z" fill="black" fill-opacity="0.341"/>
<path fill-rule="evenodd" clip-rule="evenodd" d="M12.7056 2.07375C11.4723 2.17115 10.1475 2.52412 8.88692 3.09131C4.82061 4.92084 2.47396 8.74922 2.86213 12.9197C2.97318 14.1119 3.34493 15.285 3.98183 16.4531C7.2426 22.4329 15.9741 23.8365 21.3351 19.2427C23.2504 17.6015 24.4978 15.269 24.7165 12.9197C25.3029 6.61969 19.6604 1.52437 12.7056 2.07375ZM12.5316 3.56334C8.61125 4.12865 5.61624 6.58753 4.68768 10.003C4.37496 11.1536 4.37496 12.8464 4.68768 13.997C5.53089 17.0985 8.17643 19.5016 11.5909 20.2675C12.8576 20.5516 14.7211 20.5516 15.9878 20.2675C19.4022 19.5016 22.0477 17.0985 22.891 13.997C23.2037 12.8464 23.2037 11.1536 22.891 10.003C22.0529 6.92043 19.3816 4.48162 16.0411 3.74953C15.0422 3.53062 13.3729 3.44212 12.5316 3.56334ZM12.8554 6.12168C11.9232 6.36187 11.1698 6.95672 10.7592 7.77647C10.4569 8.38022 10.4586 9.62306 10.7625 10.2302C11.0693 10.843 11.6513 11.3908 12.3033 11.6807C12.7598 11.8836 13.0198 11.9316 13.7132 11.9412C14.4449 11.9514 14.6497 11.9165 15.1826 11.6902C15.986 11.3492 16.3873 10.9871 16.7474 10.2785C16.9934 9.79425 17.0389 9.58425 17.035 8.95312C17.0294 8.07843 16.8148 7.55315 16.2171 6.95222C15.4559 6.18693 13.999 5.82703 12.8554 6.12168ZM12.9637 7.66425C12.5349 7.85868 12.138 8.50097 12.138 9C12.138 9.49903 12.5349 10.1413 12.9637 10.3357C13.3982 10.533 14.0831 10.5477 14.5513 10.37C15.3512 10.0664 15.6691 9.05119 15.2151 8.25C14.9308 7.74797 14.4599 7.50028 13.7893 7.50028C13.5339 7.50028 13.1623 7.57406 12.9637 7.66425ZM9.19861 13.2457C8.97279 13.3618 8.6804 13.6249 8.54891 13.83C8.33713 14.1607 8.31421 14.2991 8.34714 15.0469C8.37521 15.6845 8.43951 15.9874 8.61053 16.2865C9.08126 17.1105 10.035 17.7604 11.3639 18.1628C12.1164 18.3907 12.3314 18.4129 13.7893 18.4129C15.2472 18.4129 15.4622 18.3907 16.2147 18.1628C17.1628 17.8757 17.8166 17.5252 18.3739 17.005C19.0126 16.409 19.1893 16.0055 19.2315 15.0469C19.2644 14.2991 19.2415 14.1607 19.0297 13.83C18.8982 13.6249 18.6059 13.3618 18.38 13.2457C17.9726 13.036 17.9359 13.0343 13.7893 13.0343C9.64271 13.0343 9.60607 13.036 9.19861 13.2457ZM10.2544 14.5121C9.98413 14.5422 9.97061 14.5678 9.97061 15.0499C9.97061 15.4842 10.0168 15.6038 10.2967 15.8933C10.9575 16.577 12.2298 16.9687 13.7893 16.9687C15.2767 16.9687 16.5653 16.5929 17.2151 15.9697C17.5744 15.625 17.6741 15.3667 17.6256 14.9054C17.5877 14.5436 17.5739 14.5313 17.2102 14.5327C17.0032 14.5336 15.4174 14.5222 13.6861 14.5074C11.9548 14.4926 10.4106 14.4947 10.2544 14.5121Z" fill="black" fill-opacity="0.988"/>
</svg>
