<svg width="28" height="24" viewBox="0 0 28 24" fill="none" xmlns="http://www.w3.org/2000/svg">
<path fill-rule="evenodd" clip-rule="evenodd" d="M12.3018 2.10722C7.17567 2.89725 3.34116 6.76509 3.04619 11.4435C2.79436 15.4365 5.23948 19.1995 9.27916 21.0363C10.5509 21.6145 12.5497 22.0305 14.0564 22.0305C18.7486 22.0305 23.0785 19.1762 24.5351 15.1228C26.636 9.27694 22.4882 3.09759 15.8022 2.11266C14.6552 1.94372 13.376 1.94175 12.3018 2.10722ZM12.8406 6.80419C11.8822 7.23797 11.3775 7.99547 11.3775 9C11.3775 10.4262 12.4889 11.4375 14.0564 11.4375C15.625 11.4375 16.7323 10.4288 16.7375 8.99494C16.7428 7.57762 15.6281 6.56934 14.0508 6.56456C13.5276 6.56297 13.2535 6.61725 12.8406 6.80419ZM9.77322 13.5871C9.32354 13.7576 9.15386 14.0524 9.15562 14.6597C9.1582 15.593 9.72285 16.3061 10.8815 16.8395C12.6291 17.6438 15.4885 17.6416 17.2421 16.8344C18.41 16.2968 18.944 15.6154 18.9532 14.6508C18.9581 14.1347 18.9257 14.0372 18.6727 13.807L18.3866 13.5469L14.1831 13.5278C11.8712 13.5173 9.88675 13.544 9.77322 13.5871Z" fill="black" fill-opacity="0.463"/>
<path fill-rule="evenodd" clip-rule="evenodd" d="M13.0243 2.07994C11.2009 2.20219 8.94809 2.98678 7.44146 4.02431C4.99542 5.70872 3.35595 8.39681 3.13436 11.0859C2.97026 13.0785 3.31549 14.7413 4.24891 16.4531C6.91891 21.3494 13.4565 23.3605 18.8727 20.9516C24.2752 18.5489 26.5472 12.6464 23.9678 7.71506C22.2363 4.40466 18.6442 2.22375 14.624 2.04216C14.2835 2.02678 13.5636 2.04375 13.0243 2.07994ZM13.1298 6.65212C12.1101 6.97191 11.2698 8.03259 11.2698 9C11.2698 10.3004 12.6571 11.5312 14.1229 11.5312C14.6682 11.5312 15.5785 11.1712 15.9798 10.7967C16.7438 10.0837 16.9899 9.22547 16.6946 8.30297C16.4555 7.55587 15.6752 6.82781 14.8891 6.61819C14.1711 6.42675 13.8275 6.43341 13.1298 6.65212ZM9.62979 13.6309C9.27372 13.8101 9.10992 14.1371 9.10827 14.6719C9.10559 15.6052 9.75911 16.3762 11.0117 16.9174C12.0416 17.3623 12.695 17.4807 14.108 17.4786C15.904 17.4757 17.1797 17.0991 18.1589 16.2824C18.727 15.8087 19.0051 15.2903 19.0081 14.6997C19.011 14.1436 18.8427 13.8042 18.4794 13.6336C18.0764 13.4443 10.0053 13.4418 9.62979 13.6309Z" fill="black" fill-opacity="0.985"/>
</svg>
