<svg width="512" height="512" viewBox="0 0 512 512" fill="none" xmlns="http://www.w3.org/2000/svg">
<path fill-rule="evenodd" clip-rule="evenodd" d="M169.136 27.08C89.12 32.169 45.322 66.631 31.533 135.35C26.682 159.524 26.5 163.897 26.5 256C26.5 348.103 26.682 352.476 31.533 376.65C43.299 435.287 76.91 468.852 135.493 480.468C160.05 485.336 163.966 485.5 256 485.5C320.573 485.5 345.288 485.171 353.5 484.202C436.431 474.42 475.122 435.429 484.188 352.5C485.136 343.826 485.5 322.184 485.5 274.424V208.347L482.683 204.653C478.94 199.744 475.845 197.842 470.736 197.311C464.838 196.698 458.24 200.192 455.271 205.5C453.116 209.351 453.032 210.462 453.016 235.276L453 261.051L446.503 255.54C438.79 248.996 428.393 243.541 419.754 241.504C411.489 239.555 397.223 239.607 389.064 241.616C375.2 245.029 370.683 248.317 319.141 292.527C265.121 338.864 266.776 337.755 253.075 336.772C244.992 336.191 239.556 333.557 231.5 326.315C224.617 320.128 212.442 313.746 203.019 311.388C198.218 310.186 193.682 309.89 185.519 310.245C166.949 311.052 166.957 311.048 113.014 347.137C81.607 368.149 65.304 378.499 64.867 377.703C63.759 375.683 61.081 358.162 60.02 346C58.706 330.936 58.706 181.064 60.02 166C61.529 148.694 63.796 136.696 67.869 124.451C78.458 92.617 98.174 74.56 132.245 65.492C152.142 60.196 158.099 59.775 222.546 59.115C277.143 58.556 282.832 58.343 285.23 56.771C288.659 54.522 292.563 49.236 293.397 45.713C295.085 38.58 289.08 29.226 281.453 27.109C276.867 25.836 189.052 25.813 169.136 27.08ZM387.149 33.696C385.306 34.604 382.606 37.147 381.149 39.348C378.501 43.346 378.5 43.36 378.184 66.608L377.868 89.868L354.608 90.184L331.348 90.5L327.33 93.161C322.6 96.294 320 101.184 320 106.951C320 112.254 322.05 116.173 326.669 119.698L330.339 122.5L354.17 122.801L378 123.101L378.006 144.301C378.009 156.603 378.472 167.159 379.109 169.453C381.397 177.696 390.761 183.219 398.785 181.058C403.005 179.922 408.32 174.979 409.939 170.685C410.572 169.005 411 158.821 411 145.435V123H433.532C450.394 123 456.893 122.654 459.357 121.624C463.422 119.926 468.585 113.827 469.397 109.764C470.899 102.253 465.129 93.24 457.453 91.109C455.159 90.472 444.603 90.009 432.301 90.006L411.101 90L410.801 66.17L410.5 42.339L407.698 38.669C406.157 36.65 403.592 34.323 401.998 33.499C398.202 31.536 391.349 31.627 387.149 33.696ZM176.5 113.893C166.138 116.917 158.026 121.746 150.47 129.389C132.692 147.37 128.189 172.335 138.637 194.99C145.779 210.475 158.593 221.712 175.147 227.009C184.917 230.135 199.436 230.191 209.015 227.14C233.648 219.294 251 195.669 251 169.976C251 162.458 247.806 150.32 243.818 142.686C236.854 129.353 221.633 117.551 206.27 113.57C198.266 111.496 184.192 111.649 176.5 113.893ZM184.806 145.35C180.007 146.692 178.655 147.49 173.624 151.95C167.08 157.751 164.287 169.552 167.176 179.193C168.669 184.176 175.026 191.439 180.372 194.269C186.2 197.354 197.8 197.354 203.628 194.269C208.974 191.439 215.331 184.176 216.824 179.193C218.727 172.84 218.266 165.114 215.649 159.493C210.269 147.94 197.116 141.91 184.806 145.35ZM396.056 273.54C393.062 274.375 389.012 276.272 387.056 277.755C385.1 279.238 363.154 297.884 338.286 319.19C313.418 340.497 291.143 359.156 288.786 360.655C281.917 365.022 269.405 368.886 259.955 369.559C243.196 370.752 226.265 364.93 213 353.412C201.662 343.568 192.135 340.569 181.144 343.384C174.515 345.083 175.818 344.257 112.736 386.729L77.973 410.135L81.236 414.684C91.815 429.429 109.528 440.462 132.392 446.547C153.626 452.199 155.57 452.304 247 452.738C350.446 453.229 362.369 452.499 387.549 444.129C424.687 431.783 443.681 406.404 450.532 359.97C451.382 354.211 452.35 339.332 452.684 326.905L453.291 304.309L437.895 291.021C429.411 283.698 420.251 276.687 417.491 275.403C410.837 272.309 402.933 271.622 396.056 273.54Z" fill="black" fill-opacity="0.325"/>
<path fill-rule="evenodd" clip-rule="evenodd" d="M165 27.688C153.721 28.594 136.9 31.332 126.557 33.944C67.8709 48.765 37.8569 85.483 28.8269 153.5C26.9179 167.881 26.9089 344.006 28.8159 358.5C37.7499 426.384 67.9399 463.252 126.759 478.107C151.828 484.438 153.069 484.5 255.5 484.5C353.346 484.5 356.591 484.376 378 479.826C433.162 468.102 464.689 438.371 478.047 385.479C484.123 361.421 484.284 358.925 484.736 282C485.025 232.776 484.82 210.391 484.057 207.824C480.94 197.341 465.999 194.174 458.198 202.342C453.606 207.151 453.012 211.154 453.006 237.334L453 261.168L448.953 257.834C433.21 244.864 422.613 240.705 405 240.581C392.091 240.49 382.892 242.681 373.308 248.129C370.453 249.752 346.828 269.343 320.808 291.665C287.642 320.118 271.87 333.01 268.046 334.792C263.823 336.76 261.002 337.332 255.546 337.329C246.819 337.324 240.784 334.852 233.025 328.103C220.33 317.061 207.365 311.352 192.622 310.311C183.093 309.639 170.956 311.718 162.451 315.479C159.481 316.793 136.523 331.67 111.432 348.54C84.7309 366.493 65.4429 378.843 64.9219 378.322C64.4319 377.832 63.0109 371.821 61.7649 364.965C59.5139 352.576 59.4999 351.912 59.4999 256.5C59.4999 168.5 59.6509 159.606 61.3089 149.767C68.9679 104.325 87.7819 79.62 123.856 67.637C146.526 60.106 150.941 59.713 220 59.071C279.151 58.522 281.63 58.424 284.895 56.5C289.813 53.604 292.213 49.839 292.758 44.171C293.304 38.489 290.827 32.963 286.182 29.5C283.577 27.557 281.868 27.498 226.5 27.413C195.15 27.365 167.475 27.489 165 27.688ZM389.001 33.123C387.626 33.672 385.446 35.106 384.155 36.31C379.24 40.899 379 42.351 379 67.45V91H355.148C332.059 91 331.19 91.072 327.99 93.25C323.342 96.413 320.943 100.009 320.304 104.768C319.581 110.16 322.714 116.649 327.659 120C331.299 122.467 331.658 122.504 355.124 122.815L378.901 123.13L379.201 147.315C379.477 169.675 379.651 171.702 381.5 174.182C384.963 178.827 390.489 181.304 396.171 180.758C401.839 180.213 405.604 177.813 408.5 172.895C410.316 169.812 410.529 167.368 410.816 146.316L411.132 123.132L434.316 122.816C455.368 122.529 457.812 122.316 460.895 120.5C465.813 117.604 468.213 113.839 468.758 108.171C469.304 102.489 466.827 96.963 462.182 93.5C459.702 91.651 457.675 91.477 435.315 91.201L411.13 90.901L410.815 67.201C410.514 44.528 410.401 43.34 408.212 39.821C404.358 33.623 395.496 30.533 389.001 33.123ZM179.5 113.426C145.669 121.325 125.819 155.876 136.368 188.5C141.369 203.964 151.847 215.955 166.5 222.983C175.895 227.489 182.414 229.006 192.299 228.985C217.586 228.933 239.816 212.668 247.632 188.5C257.366 158.398 241.033 125.81 210.973 115.356C201.911 112.204 188.305 111.37 179.5 113.426ZM183.882 145.319C174.651 148.774 169.185 154.499 166.375 163.653C164.386 170.131 165.327 177.245 169.03 183.73C174.09 192.588 181.817 197 192.272 197C207.003 197 218.293 185.764 218.396 171C218.47 160.334 213.205 151.696 203.664 146.829C198.544 144.217 188.812 143.474 183.882 145.319ZM395.994 272.876C389.814 274.9 384.036 279.472 341.488 315.999C316.657 337.317 293.996 356.443 291.13 358.502C288.265 360.561 282.451 363.613 278.21 365.286C271.585 367.899 268.835 368.392 258.668 368.79C240.011 369.519 227.644 365.262 213.13 353.114C202.466 344.19 198.502 342.519 188 342.522C181.208 342.524 178.683 342.959 175.437 344.687C172.425 346.29 80.4579 407.649 78.1039 409.627C77.2239 410.365 83.1599 417.995 89.3869 424.131C102.389 436.943 121.523 445.593 147.18 450.259C159.385 452.479 160.396 452.5 255.5 452.5C343.5 452.5 352.394 452.349 362.233 450.691C407.728 443.023 432.366 424.259 444.363 388.144C450.349 370.124 452.15 357.232 452.693 328.5L453.166 303.5L438.059 290.666C418.924 274.411 416.012 272.742 406.091 272.353C401.916 272.189 397.372 272.424 395.994 272.876Z" fill="black" fill-opacity="0.988"/>
</svg>
