<?xml version="1.0" encoding="UTF-8"?>
<svg version="1.1" viewBox="0 0 2048 2048" width="1280" height="1280" xmlns="http://www.w3.org/2000/svg">
<path transform="translate(554)" d="m0 0h942v3l16 8 21 11 15 11 10 9 6 5 8 10 10 14 10 19 6 16 4 19 1 11v1756l-2 28-2 16-4 12-11 23-9 14-8 10-9 10-12 11-16 10-16 8-29 12 3 2h-926l-16-8-24-11-14-8-14-12-13-13-11-14-8-13-8-16-6-15-3-14-2-16-1-16-1-55v-441l1-1084 1-171 2-18 4-19 9-21 11-18 10-13 7-8 12-11 16-11 10-6 19-10 10-5zm939 1m-681 89-10 2-5 6-4 14-1 4v22l5 15 5 5 7 2 8 1 124 1h136l156-1 11-2 4-2 3-5 4-24-1-17-4-13-4-5-7-2-47-1zm-256 161-1 56-1 947 1 320h935l1-191v-1131l-1-1zm456 1459-16 3-12 5-14 8-9 7-9 9-10 15-6 13-5 16-2 15v10l3 15 7 19 8 15 8 10 8 8 10 7 12 6 17 6 12 2h19l15-3 13-5 15-8 14-11 8-9 10-15 7-19 2-9 1-15-1-15-4-16-8-17-8-11-9-10-14-11-17-9-13-4-14-2z" fill="#fff"/>
<path transform="translate(1499)" d="m0 0h14v1l-13 1z" fill="#fff"/>
<path transform="translate(538,2045)" d="m0 0 3 1-3 1z" fill="#fff"/>
<path transform="translate(548,2046)" d="m0 0h2v2h-2z" fill="#fff"/>
<path transform="translate(558,2047)" d="m0 0 3 1z" fill="#fff"/>
<path transform="translate(1497)" d="m0 0" fill="#fff"/>
</svg>
