<svg width="512" height="512" viewBox="0 0 512 512" fill="none" xmlns="http://www.w3.org/2000/svg">
<g clip-path="url(#clip0_343_41)">
<path fill-rule="evenodd" clip-rule="evenodd" d="M136.969 1.5359C130.355 3.5749 122.083 9.7719 117.808 15.8899C110.445 26.4299 111 6.84991 111 256C111 505.15 110.445 485.57 117.808 496.11C122.213 502.414 130.412 508.451 137.382 510.521C144.864 512.743 367.136 512.743 374.618 510.521C381.588 508.451 389.787 502.414 394.192 496.11C401.556 485.569 401.001 505.172 400.989 255.846C400.977 7.15588 401.521 26.6829 394.316 16.1869C389.956 9.8339 381.511 3.5259 374.633 1.4839C367.384 -0.669104 143.962 -0.620104 136.969 1.5359ZM200.153 24.7499C198.18 28.5179 197.898 32.8209 199.392 36.3959L200.898 39.9999H255.827C298.552 39.9999 310.985 39.7219 311.788 38.7499C313.806 36.3079 314.215 30.4509 312.632 26.6619L311.102 22.9999H256.086C204.706 22.9999 201.01 23.1159 200.153 24.7499ZM139 228V393H256H373V228V62.9999H256H139V228ZM248.137 429.369C243.155 431.172 237.014 436.757 234.903 441.406C232.689 446.282 232.413 455.663 234.348 460.282C240.848 475.792 261.598 479.563 273.197 467.342C279.056 461.169 280.809 449.579 277.114 441.444C272.387 431.037 258.973 425.448 248.137 429.369Z" fill="black" fill-opacity="0.325"/>
<path fill-rule="evenodd" clip-rule="evenodd" d="M141.045 1.08008C129.492 3.37708 118.277 12.7171 113.821 23.7531L111.5 29.5001V256V482.5L113.912 488.5C117.212 496.707 126.293 505.788 134.5 509.088L140.5 511.5H256H371.5L377.5 509.088C385.707 505.788 394.788 496.707 398.088 488.5L400.5 482.5V256V29.5001L398.088 23.5001C394.788 15.2931 385.707 6.21208 377.5 2.91208L371.5 0.500078L258.5 0.347078C196.193 0.263078 143.502 0.592078 141.045 1.08008ZM200.455 24.4551C196.76 28.1491 197.321 37.5111 201.4 40.2351C202.005 40.6391 226.575 40.9691 256 40.9691C285.425 40.9691 309.995 40.6391 310.6 40.2351C314.679 37.5111 315.24 28.1491 311.545 24.4551L309.091 22.0001H256H202.909L200.455 24.4551ZM139 228.5V394H256H373V228.5V63.0001H256H139V228.5ZM251.222 428.115C245.378 429.194 239.127 433.624 235.759 439.073C226.071 454.742 237.473 474.956 256 474.956C274.166 474.956 285.734 455.166 276.639 439.646C273.701 434.634 271.744 432.812 266.5 430.205C261.542 427.74 256.782 427.089 251.222 428.115Z" fill="black" fill-opacity="0.988"/>
</g>
<defs>
<clipPath id="clip0_343_41">
<rect width="512" height="512" fill="white"/>
</clipPath>
</defs>
</svg>
