<svg width="27" height="24" viewBox="0 0 27 24" fill="none" xmlns="http://www.w3.org/2000/svg">
<path fill-rule="evenodd" clip-rule="evenodd" d="M9.26169 2.09813C8.37152 2.38706 7.94289 2.85253 7.11237 4.43222C6.52409 5.55131 6.49901 5.57259 4.94087 6.28134C3.61381 6.885 3.24897 7.13203 2.91138 7.65525C2.44797 8.37356 2.46913 8.92585 3.01954 10.4785C3.28045 11.2144 3.49389 11.8987 3.49389 11.9991C3.49389 12.0996 3.27932 12.762 3.01717 13.4712C2.59628 14.6098 2.54654 14.8291 2.59215 15.3454C2.65563 16.0638 3.0184 16.6693 3.62981 17.0771C3.86729 17.2356 4.58098 17.5926 5.21592 17.8704C5.94684 18.1904 6.44379 18.4703 6.57074 18.6332C6.68096 18.7748 7.01484 19.3328 7.3127 19.8731C7.97726 21.0786 8.24921 21.41 8.82522 21.7166C9.616 22.1376 10.224 22.1183 11.9333 21.6184C12.7434 21.3814 13.4967 21.1875 13.6073 21.1875C13.7179 21.1875 14.4308 21.3773 15.1914 21.6094C16.703 22.0704 17.2108 22.1187 17.9951 21.876C18.7742 21.6349 19.2746 21.1048 20.0041 19.7476C20.4052 19.0016 20.7408 18.5018 20.9164 18.3891C21.0691 18.2909 21.6809 17.9892 22.2758 17.7187C23.6028 17.115 23.9677 16.868 24.3052 16.3448C24.7687 15.6264 24.7475 15.0742 24.1971 13.5215C23.9362 12.7856 23.7227 12.1013 23.7227 12.0009C23.7227 11.9004 23.9317 11.2529 24.1872 10.562C24.6948 9.18891 24.7479 8.72766 24.4807 8.01525C24.2153 7.30753 23.6317 6.85303 22.1376 6.19031C21.3164 5.826 20.766 5.52113 20.6419 5.36166C20.5338 5.22291 20.1835 4.63406 19.8634 4.0531C19.1976 2.84485 18.7142 2.34656 17.991 2.12278C17.2415 1.89075 16.8425 1.92984 15.2596 2.39063C14.4626 2.62266 13.7199 2.8125 13.6093 2.8125C13.4987 2.8125 12.7858 2.62266 12.0252 2.39063C10.5582 1.94316 9.94049 1.87772 9.26169 2.09813ZM9.96041 7.63678C8.64956 8.06128 8.28493 9.45178 9.23434 10.4063C9.66193 10.8363 10.1576 11.0083 10.7842 10.9441C12.0158 10.818 12.8051 9.62231 12.3336 8.59706C12.1493 8.19638 11.5419 7.72172 11.0567 7.59938C10.5638 7.47506 10.4476 7.479 9.96041 7.63678ZM16.5283 8.36719C13.6514 10.9283 8.79663 15.3996 8.71551 15.5631C8.51776 15.9617 9.12969 16.5767 9.61425 16.4662C9.74563 16.4363 11.362 15.05 13.2061 13.3855C17.6018 9.41831 18.5623 8.49703 18.5623 8.24859C18.5623 7.98628 18.0221 7.5 17.7307 7.5C17.5818 7.5 17.1636 7.80159 16.5283 8.36719ZM15.8273 13.2076C15.3362 13.4124 15.1162 13.6215 14.9023 14.0863C14.5775 14.7925 14.7592 15.496 15.3977 16.0054C16.2933 16.7196 17.5488 16.5743 18.2124 15.6797C18.6853 15.0424 18.609 14.2371 18.0178 13.6254C17.4394 13.0271 16.6301 12.8727 15.8273 13.2076Z" fill="black" fill-opacity="0.247"/>
<path fill-rule="evenodd" clip-rule="evenodd" d="M9.55412 2.0701C8.57405 2.28225 8.03314 2.79338 7.2598 4.23788C6.95512 4.80713 6.59844 5.37797 6.46736 5.50641C6.33618 5.63485 5.67162 5.991 4.99045 6.29785C3.61416 6.91782 3.15344 7.25522 2.85021 7.86525C2.525 8.51916 2.58456 9.2236 3.07614 10.5425C3.30598 11.1588 3.49393 11.8148 3.49393 12.0002C3.49393 12.1856 3.30227 12.8396 3.06798 13.4534C2.17337 15.7972 2.58858 16.6815 5.09809 17.7774C5.84089 18.1019 6.37148 18.3991 6.54848 18.5898C6.70185 18.7553 7.05854 19.3287 7.34092 19.8642C8.46837 22.002 9.43522 22.355 12.0038 21.5663C12.6823 21.3579 13.4045 21.1875 13.6086 21.1875C13.8127 21.1875 14.5327 21.3616 15.2084 21.5744C17.7896 22.3873 18.7558 22.0125 19.9762 19.7246C20.3289 19.0635 20.6704 18.5604 20.8704 18.4073C21.0485 18.2709 21.6765 17.9496 22.266 17.6931C24.6236 16.6672 25.0108 15.7921 24.1406 13.4575C23.9107 12.8412 23.7228 12.1852 23.7228 11.9998C23.7228 11.8144 23.9144 11.1604 24.1487 10.5466C25.0394 8.21307 24.6296 7.32694 22.1536 6.23325C21.5269 5.9565 20.8978 5.6325 20.7553 5.51344C20.613 5.39428 20.2405 4.81575 19.9277 4.22785C18.7329 1.98207 17.815 1.63266 15.2129 2.433C14.5344 2.64178 13.8122 2.8125 13.6081 2.8125C13.404 2.8125 12.7052 2.64769 12.0552 2.44622C10.7336 2.03672 10.1286 1.94569 9.55412 2.0701ZM9.70377 7.70119C8.03107 8.45325 8.50222 10.8095 10.3532 10.9489C11.0833 11.0039 11.5577 10.8473 11.996 10.4066C12.8433 9.55472 12.5364 8.14763 11.4013 7.67935C10.8391 7.44741 10.2514 7.455 9.70377 7.70119ZM13.0162 11.4622C9.04107 15.073 8.65435 15.4516 8.65435 15.7321C8.65435 16.1451 9.0451 16.5 9.49973 16.5C9.80853 16.5 10.2253 16.1487 14.2005 12.5378C18.1756 8.92697 18.5624 8.54841 18.5624 8.26791C18.5624 7.85494 18.1716 7.5 17.717 7.5C17.4082 7.5 16.9914 7.85128 13.0162 11.4622ZM15.7197 13.2006C15.3151 13.4316 14.8644 13.9194 14.7829 14.2147C14.7477 14.342 14.7396 14.6732 14.7649 14.9507C14.8514 15.8977 15.7573 16.5705 16.8207 16.4777C18.5519 16.3266 19.1731 14.3125 17.7851 13.3508C17.2738 12.9966 16.2123 12.9193 15.7197 13.2006Z" fill="black" fill-opacity="0.99"/>
</svg>
