<svg width="20" height="20" viewBox="0 0 20 20" fill="none" xmlns="http://www.w3.org/2000/svg">
<path fill-rule="evenodd" clip-rule="evenodd" d="M3.83127 0.754096C3.21635 1.01753 2.93604 1.27675 2.65304 1.84375C2.44807 2.25438 2.44239 2.42819 2.44022 8.38281L2.43795 14.5H1.86566C1.39039 14.5 1.24879 14.5404 1.03112 14.7381C0.776814 14.9692 0.770105 15.0071 0.803648 16.0272C0.833269 16.9282 0.877236 17.1536 1.11152 17.6076C1.45954 18.2819 2.09324 18.8575 2.83551 19.1736L3.41843 19.4219H10.385H17.3516L17.9345 19.1736C18.6768 18.8575 19.3105 18.2819 19.6585 17.6076L19.9318 17.0781L19.9605 9.71875C19.9863 3.10984 19.9721 2.31841 19.8215 1.95728C19.5839 1.38813 19.1962 1.00778 18.5943 0.753158L18.074 0.533127H11.2107H4.34731L3.83127 0.754096ZM6.72111 4.582C6.2061 4.85031 6.11269 5.33753 6.49838 5.74478C6.82999 6.09494 7.33468 6.09494 7.66629 5.74478C8.05838 5.33078 7.95558 4.83475 7.42457 4.57778C7.14571 4.44288 6.98625 4.44381 6.72111 4.582ZM9.48864 4.56316C9.00439 4.74044 8.88642 5.42716 9.28212 5.76494C9.51651 5.96491 9.57998 5.96875 12.629 5.96875H15.7369L15.9507 5.72172C16.311 5.30566 16.1985 4.8281 15.6813 4.57778C15.4105 4.44681 9.84244 4.43369 9.48864 4.56316ZM6.72111 7.582C6.21962 7.84328 6.11641 8.31269 6.47062 8.72172C6.92546 9.2471 7.91378 8.90791 7.9047 8.22953C7.90088 7.94566 7.7437 7.73219 7.42457 7.57778C7.14571 7.44288 6.98625 7.44381 6.72111 7.582ZM9.55934 7.53522C8.9919 7.72478 8.84885 8.3951 9.29471 8.77563C9.54499 8.98919 9.55954 8.99013 12.6178 8.99069L15.6895 8.99125L15.9271 8.74038C16.3153 8.3306 16.2101 7.83372 15.6813 7.57778C15.45 7.46594 9.88279 7.42722 9.55934 7.53522ZM6.72111 10.582C6.21962 10.8433 6.11641 11.3127 6.47062 11.7217C6.92546 12.2471 7.91378 11.9079 7.9047 11.2295C7.90088 10.9457 7.7437 10.7322 7.42457 10.5778C7.14571 10.4429 6.98625 10.4438 6.72111 10.582ZM9.48864 10.5632C8.99675 10.7432 8.88673 11.4274 9.29389 11.7749C9.54355 11.988 9.55428 11.9886 12.6224 11.9805L15.7002 11.9722L15.9325 11.7309C16.316 11.3324 16.207 10.8321 15.6813 10.5778C15.4105 10.4468 9.84244 10.4337 9.48864 10.5632ZM2.43795 16.322C2.43795 16.7523 2.59896 17.115 2.9348 17.4412C3.47943 17.9703 3.46199 17.9688 8.67309 17.9688H13.4698L13.2136 17.4603C13.0727 17.1808 12.9294 16.7378 12.8953 16.476L12.8332 16H7.63564H2.43795V16.322Z" fill="black" fill-opacity="0.988"/>
</svg>
