<svg width="28" height="24" viewBox="0 0 28 24" fill="none" xmlns="http://www.w3.org/2000/svg">
<path fill-rule="evenodd" clip-rule="evenodd" d="M9.64806 2.12363C8.91115 2.36991 8.39645 2.92753 7.68813 4.24716C7.28232 5.00325 6.95319 5.49272 6.77288 5.60859C6.61807 5.70806 5.96796 6.02738 5.32838 6.31819C4.01144 6.91706 3.44575 7.37288 3.19712 8.03578C2.94715 8.70216 2.99473 9.09056 3.49828 10.49C3.75372 11.1999 3.9622 11.8829 3.96159 12.0076C3.96107 12.1323 3.77375 12.7195 3.54555 13.3125C3.02672 14.6603 2.94416 15.2689 3.18928 15.9392C3.45731 16.6722 4.03476 17.1443 5.37399 17.7256C5.9885 17.9923 6.62096 18.2938 6.77949 18.3957C6.96433 18.5145 7.30709 19.015 7.73571 19.7919C8.4847 21.1497 8.95677 21.6489 9.71298 21.8829C10.4466 22.11 10.8742 22.0668 12.4148 21.6094C13.1964 21.3773 13.9482 21.188 14.0855 21.1885C14.2228 21.189 14.8693 21.3592 15.5221 21.5664C17.0064 22.0379 17.6757 22.1127 18.4148 21.8898C19.2076 21.6505 19.7543 21.0959 20.3918 19.884C20.6791 19.3376 21.0059 18.7729 21.1181 18.6289C21.2489 18.461 21.7999 18.1496 22.6552 17.7603C24.15 17.0799 24.6996 16.6511 24.9572 15.9642C25.2071 15.2978 25.1596 14.9094 24.656 13.51C24.4006 12.8001 24.1921 12.1171 24.1927 11.9924C24.1932 11.8677 24.3806 11.2805 24.6087 10.6875C25.1276 9.33975 25.2101 8.73113 24.965 8.06081C24.697 7.32778 24.1195 6.85566 22.7803 6.27441C22.1658 6.00769 21.5333 5.70619 21.3748 5.60428C21.19 5.4855 20.8472 4.98497 20.4186 4.20806C19.6696 2.85028 19.1975 2.35106 18.4413 2.11706C17.7077 1.89 17.2801 1.93322 15.7395 2.39063C14.9579 2.62266 14.2061 2.81203 14.0688 2.81147C13.9315 2.811 13.285 2.64 12.6322 2.43169C11.2322 1.98478 10.3394 1.89263 9.64806 2.12363ZM9.89349 3.86484C9.7395 4.03106 9.39221 4.59647 9.1218 5.12119C8.44032 6.44344 8.05153 6.79847 6.5066 7.509C5.81696 7.82625 5.14828 8.17219 5.02061 8.27794C4.68683 8.55431 4.72285 8.92819 5.2103 10.2433C5.81511 11.8749 5.79952 12.267 5.05714 14.1094C4.91172 14.4703 4.79179 14.9411 4.79056 15.1557C4.78777 15.6619 5.09172 15.9006 6.50433 16.5012C7.95998 17.1202 8.35084 17.4734 9.13305 18.8768C9.48231 19.5032 9.86315 20.1106 9.97957 20.2266C10.2838 20.5298 10.6954 20.497 12.1432 20.0543C13.9395 19.5049 14.3711 19.519 16.3993 20.1934C16.7967 20.3255 17.315 20.4344 17.5512 20.4355C18.1085 20.4381 18.3712 20.162 19.0325 18.8788C19.714 17.5566 20.1028 17.2015 21.6477 16.491C22.3373 16.1738 23.0059 15.8278 23.1337 15.7221C23.4675 15.4457 23.4314 15.0718 22.944 13.7567C22.3392 12.1251 22.3548 11.733 23.0972 9.89063C23.2426 9.52969 23.3625 9.05888 23.3637 8.84428C23.3665 8.33813 23.0626 8.09944 21.65 7.49878C20.1943 6.87975 19.8035 6.52659 19.0212 5.12325C18.672 4.49681 18.2912 3.88941 18.1747 3.77344C17.8705 3.47025 17.4589 3.50297 16.0111 3.94575C14.2148 4.49513 13.7832 4.48097 11.755 3.80663C11.3576 3.67453 10.8393 3.56559 10.603 3.56447C10.2445 3.56278 10.1273 3.61247 9.89349 3.86484ZM10.2068 7.65084C9.41595 8.04384 9.08083 8.59238 9.1443 9.38963C9.2181 10.3164 9.99856 10.9889 11.0151 11.0015C12.1182 11.0152 12.9714 10.2447 12.9714 9.23484C12.9714 8.64431 12.7535 8.25619 12.1898 7.84228C11.8639 7.60303 11.6922 7.55044 11.1577 7.52616C10.7076 7.50572 10.4242 7.54284 10.2068 7.65084ZM13.485 11.4622C9.37053 15.1997 9.12314 15.4433 9.12314 15.7583C9.12314 16.1923 9.46786 16.5 9.95408 16.5C10.2819 16.5 10.6215 16.2146 14.6693 12.5378C18.7838 8.80031 19.0312 8.55675 19.0312 8.24166C19.0312 7.80769 18.6864 7.5 18.2002 7.5C17.8724 7.5 17.5328 7.78538 13.485 11.4622ZM16.633 13.0288C15.731 13.2821 15.1641 13.9642 15.1764 14.7815C15.1903 15.7053 15.9305 16.4138 16.952 16.4809C18.2228 16.5644 19.102 15.7654 19.01 14.6104C18.9422 13.759 18.268 13.1133 17.3282 12.9995C17.1012 12.972 16.7883 12.9851 16.633 13.0288Z" fill="black" fill-opacity="0.58"/>
<path fill-rule="evenodd" clip-rule="evenodd" d="M10.0229 2.07009C9.04821 2.28113 8.47489 2.81822 7.76481 4.18566C7.48863 4.71741 7.12915 5.29069 6.96588 5.45953C6.78444 5.64731 6.22133 5.964 5.51662 6.2745C4.88282 6.55378 4.16304 6.94313 3.9173 7.13963C2.99266 7.87894 2.89069 8.80331 3.54493 10.5153C3.77467 11.1167 3.96272 11.7745 3.96272 11.9772C3.96272 12.1799 3.77137 12.848 3.53739 13.4619C2.65754 15.771 3.08286 16.7092 5.47441 17.7338C6.05981 17.9847 6.69093 18.3112 6.87681 18.4596C7.08302 18.624 7.43135 19.1345 7.77008 19.7687C8.41368 20.9738 8.8389 21.4661 9.479 21.7477C10.2109 22.0694 10.998 22.0217 12.4551 21.567C13.1241 21.3583 13.8483 21.1875 14.0646 21.1875C14.2808 21.1875 15.0107 21.3613 15.6866 21.5738C18.2517 22.3803 19.2259 22.0057 20.434 19.7487C20.7418 19.1737 21.0804 18.61 21.1864 18.4963C21.2923 18.3826 21.9161 18.0513 22.5726 17.7602C23.2291 17.4691 23.9507 17.0874 24.1762 16.912C25.147 16.1573 25.2648 15.2111 24.6044 13.4759C24.3773 12.8794 24.1916 12.2255 24.1916 12.0228C24.1916 11.8201 24.3829 11.152 24.6169 10.5381C25.4957 8.23181 25.0705 7.29047 22.6896 6.27028C22.1094 6.02175 21.4873 5.70553 21.3069 5.56772C21.1073 5.41509 20.7401 4.88419 20.3686 4.21106C19.6703 2.94563 19.3127 2.53266 18.6711 2.25047C17.9426 1.93022 17.1515 1.97897 15.7117 2.433C15.0496 2.64169 14.3254 2.8125 14.1022 2.8125C13.8791 2.8125 13.1668 2.64825 12.5193 2.44744C11.1981 2.03775 10.5941 1.94644 10.0229 2.07009ZM10.1855 3.56175C9.90422 3.66731 9.60275 4.09791 9.00373 5.25C8.38572 6.43837 7.93304 6.83756 6.43105 7.51847C4.84401 8.238 4.73234 8.32528 4.75433 8.83059C4.76403 9.05269 4.94155 9.65625 5.14889 10.1719C5.38596 10.7614 5.54707 11.3529 5.58278 11.7656C5.63511 12.3702 5.60136 12.5245 5.15426 13.7274C4.44821 15.627 4.45894 15.6493 6.50051 16.541C7.98073 17.1875 8.37199 17.5446 9.1508 18.9602C9.93642 20.3882 10.0326 20.489 10.588 20.4661C10.8325 20.4561 11.5666 20.2773 12.2194 20.0687C13.9081 19.5292 14.3023 19.5461 16.4888 20.2523C17.5377 20.5912 17.9675 20.5759 18.3035 20.1877C18.4191 20.0542 18.7668 19.4668 19.0763 18.8823C19.788 17.5377 20.1811 17.1823 21.7395 16.4749C23.3116 15.7612 23.4226 15.6739 23.3974 15.1694C23.3863 14.9473 23.1895 14.2805 22.9599 13.6875C22.3659 12.1536 22.3846 11.7954 23.1621 9.80934C23.5351 8.85656 23.5182 8.46619 23.091 8.16094C22.944 8.05594 22.3061 7.74384 21.6733 7.46756C20.1775 6.81431 19.7794 6.45347 19.0108 5.05463C18.2178 3.61125 18.1226 3.51103 17.5663 3.53391C17.3218 3.54394 16.5877 3.72272 15.9349 3.93131C14.3629 4.43353 13.902 4.43522 12.3438 3.94463C11.0238 3.52903 10.5139 3.43856 10.1855 3.56175ZM10.3058 7.67063C8.83498 8.29716 8.76057 10.1453 10.181 10.7699C11.8663 11.511 13.5388 9.99178 12.7229 8.46094C12.2999 7.66706 11.1765 7.29975 10.3058 7.67063ZM17.8443 7.61063C17.4573 7.80731 9.33492 15.2305 9.21231 15.4996C8.97307 16.0241 9.49975 16.5992 10.0952 16.4634C10.3772 16.3991 18.6802 8.95163 18.9161 8.55131C19.0939 8.24953 19.0543 8.01872 18.7781 7.74806C18.5102 7.48547 18.1846 7.43756 17.8443 7.61063ZM16.2961 13.1873C15.2983 13.6662 14.9451 14.6268 15.4313 15.5391C15.9699 16.5496 17.4019 16.783 18.3625 16.017C19.3551 15.2253 19.1487 13.7469 17.9733 13.2301C17.4385 12.995 16.7344 12.9771 16.2961 13.1873Z" fill="black" fill-opacity="0.981"/>
</svg>
