<svg width="27" height="24" viewBox="0 0 27 24" fill="none" xmlns="http://www.w3.org/2000/svg">
<path fill-rule="evenodd" clip-rule="evenodd" d="M6.87844 2.52356C6.16238 2.68565 5.4971 3.18215 5.10965 3.84375C4.92873 4.15266 4.91583 4.53272 4.88879 10.3359L4.8602 16.5L4.32114 16.503C3.46864 16.5077 3.21454 16.8087 3.21454 17.814C3.21454 19.741 4.32166 21.0981 6.18684 21.4572C6.94635 21.6035 18.8859 21.6035 19.6454 21.4572C21.1534 21.1669 22.218 20.1772 22.5103 18.7938C22.5944 18.3958 22.6195 16.2055 22.5973 11.2031L22.5661 4.17187L22.334 3.77728C22.0552 3.30356 21.6777 2.96475 21.1212 2.68894C20.7097 2.48503 20.686 2.48428 13.9482 2.4689C10.2301 2.46037 7.04873 2.48503 6.87844 2.52356ZM6.87379 4.26141L6.62042 4.49147V10.4958V16.5H11.563C17.4846 16.5 16.9604 16.3772 17.0523 17.7863C17.0989 18.5005 17.1658 18.8007 17.3422 19.0857C18.0878 20.2909 20.0456 20.2356 20.6675 18.9918C20.8481 18.6305 20.8587 18.2193 20.8609 11.5505L20.8632 4.49147L20.6098 4.26141L20.3565 4.03125H13.7418H7.12707L6.87379 4.26141ZM9.04117 6.69891C8.76272 6.95175 8.70347 7.43934 8.92011 7.69566C9.2642 8.10281 9.76043 8.12531 10.2069 7.75416C10.7195 7.32797 10.3228 6.46875 9.61346 6.46875C9.41241 6.46875 9.20084 6.55378 9.04117 6.69891ZM11.7608 6.75375C11.4971 6.99337 11.4576 7.08666 11.5132 7.33941C11.5497 7.50469 11.6724 7.72453 11.7861 7.82784C11.9815 8.00541 12.1505 8.01712 14.9056 8.04337C16.5077 8.05856 17.9241 8.04703 18.0533 8.0175C18.7002 7.87003 18.9183 7.13109 18.4424 6.69891L18.1892 6.46875H15.1319H12.0746L11.7608 6.75375ZM9.04117 9.69891C8.69749 10.011 8.69924 10.4855 9.04499 10.7805C9.83846 11.4577 10.9558 10.3983 10.1858 9.69891C10.0261 9.55378 9.81451 9.46875 9.61346 9.46875C9.41241 9.46875 9.20084 9.55378 9.04117 9.69891ZM11.7608 9.75375C11.4971 9.99337 11.4576 10.0867 11.5132 10.3394C11.5497 10.5047 11.6724 10.7245 11.786 10.8278C11.981 11.005 12.1514 11.0172 14.8024 11.0443C17.8521 11.0753 18.1929 11.0506 18.4952 10.776C18.786 10.5118 18.7604 9.98766 18.4424 9.69891L18.1892 9.46875H15.1319H12.0746L11.7608 9.75375ZM9.04117 12.6989C8.27113 13.3983 9.38847 14.4577 10.1819 13.7805C10.7159 13.3249 10.3449 12.4687 9.61346 12.4687C9.41241 12.4687 9.20084 12.5538 9.04117 12.6989ZM11.7608 12.7537C11.4971 12.9934 11.4576 13.0867 11.5132 13.3394C11.5497 13.5047 11.6724 13.7245 11.786 13.8278C11.981 14.005 12.1514 14.0172 14.8024 14.0443C17.8521 14.0753 18.1929 14.0506 18.4952 13.776C18.786 13.5118 18.7604 12.9877 18.4424 12.6989L18.1892 12.4687H15.1319H12.0746L11.7608 12.7537ZM4.96908 18.2843C4.96908 18.6162 5.2108 19.1812 5.46324 19.4395C5.56047 19.5389 5.82571 19.6977 6.05277 19.7924C6.43402 19.9515 6.82694 19.9648 11.1874 19.9667C13.7844 19.9678 15.9092 19.946 15.9092 19.9181C15.9092 19.8903 15.8111 19.6929 15.6913 19.4797C15.5715 19.2663 15.449 18.8461 15.4189 18.5458L15.3644 18H10.1668H4.96908V18.2843Z" fill="black" fill-opacity="0.341"/>
<path fill-rule="evenodd" clip-rule="evenodd" d="M6.35508 2.75447C5.75523 3.00816 5.25766 3.50625 5.08685 4.02394C5.00387 4.27556 4.96909 6.17147 4.96909 10.4406V16.5H4.3968C3.92039 16.5 3.78013 16.5402 3.5604 16.7398C3.30176 16.9748 3.29722 17.0021 3.33726 18.0758C3.37349 19.0467 3.41044 19.2285 3.66113 19.6673C4.03701 20.3253 4.65368 20.87 5.36665 21.1736L5.94957 21.4219H12.9161H19.8827L20.4656 21.1736C21.1758 20.8712 21.7922 20.3282 22.1756 19.6673L22.4629 19.1719L22.493 11.8125C22.5146 6.51113 22.4901 4.34447 22.4052 4.06463C22.2412 3.52378 21.7461 3.01566 21.1285 2.75447L20.6052 2.53313H13.7418H6.87845L6.35508 2.75447ZM6.88588 4.17394C6.75914 4.26103 6.66542 4.47281 6.62785 4.75688C6.59534 5.00231 6.5811 7.74488 6.59617 10.8516L6.62362 16.5H11.5646C17.4924 16.5 16.9519 16.3694 17.0454 17.8239C17.1159 18.9217 17.2593 19.2595 17.8191 19.6474C18.2141 19.921 18.8616 20.0318 19.4656 19.9288C19.9166 19.8519 20.5342 19.3777 20.7258 18.961C20.8592 18.6711 20.8843 16.1439 20.8643 5.03906C20.8624 3.93497 21.539 4.03078 13.7676 4.03425C8.07494 4.03678 7.05534 4.0575 6.88588 4.17394ZM9.34069 6.5626C9.05263 6.66703 8.7878 7.01588 8.7878 7.29075C8.7878 7.60622 9.22922 7.96875 9.61347 7.96875C10.0052 7.96875 10.4391 7.60425 10.4391 7.2751C10.4391 7.00744 10.0724 6.60019 9.76828 6.53006C9.65475 6.50381 9.46237 6.51844 9.34069 6.5626ZM12.0285 6.60047C11.5105 6.80878 11.3992 7.4115 11.8133 7.76494C12.0475 7.96472 12.1122 7.96875 15.1207 7.96875H18.1892L18.4424 7.7386C18.7633 7.44722 18.7648 7.1146 18.4469 6.77869L18.1979 6.51563L15.2732 6.49369C12.9765 6.47644 12.2798 6.49941 12.0285 6.60047ZM9.34069 9.5626C9.05263 9.66703 8.7878 10.0159 8.7878 10.2908C8.7878 10.6062 9.22922 10.9688 9.61347 10.9688C10.0052 10.9688 10.4391 10.6043 10.4391 10.2751C10.4391 10.0074 10.0724 9.60019 9.76828 9.53006C9.65475 9.50381 9.46237 9.51844 9.34069 9.5626ZM12.0285 9.60197C11.5107 9.80775 11.399 10.4113 11.8133 10.7649C12.0475 10.9647 12.1122 10.9688 15.1207 10.9688H18.1892L18.4424 10.7386C18.7633 10.4472 18.7648 10.1146 18.4468 9.77869L18.1978 9.51563L15.2731 9.49528C12.9979 9.47944 12.2775 9.50306 12.0285 9.60197ZM9.34069 12.5626C9.05263 12.667 8.7878 13.0159 8.7878 13.2908C8.7878 13.6062 9.22922 13.9688 9.61347 13.9688C10.0052 13.9688 10.4391 13.6043 10.4391 13.2751C10.4391 13.0074 10.0724 12.6002 9.76828 12.5301C9.65475 12.5038 9.46237 12.5184 9.34069 12.5626ZM11.9916 12.621C11.5232 12.7999 11.4295 13.3074 11.7884 13.7217L12.0022 13.9688H15.0957H18.1892L18.4424 13.7386C18.7634 13.4471 18.7648 13.1144 18.4464 12.7787L18.197 12.5156L15.2359 12.5142C13.2286 12.5134 12.1836 12.5477 11.9916 12.621ZM4.96909 18.322C4.96909 18.7523 5.13009 19.115 5.46593 19.4412C6.01057 19.9704 5.9925 19.9688 11.2117 19.9688H16.0159L15.7471 19.4872C15.5995 19.2222 15.4528 18.7793 15.4214 18.5028L15.3642 18H10.1667H4.96909V18.322Z" fill="black" fill-opacity="0.988"/>
</svg>
