<svg width="28" height="24" viewBox="0 0 28 24" fill="none" xmlns="http://www.w3.org/2000/svg">
<path fill-rule="evenodd" clip-rule="evenodd" d="M12.8345 2.13262C12.4781 2.24034 12.14 2.44968 11.7415 2.80931C10.8341 3.62831 10.8137 3.72731 10.8462 7.15725L10.8736 10.0389L11.3772 9.80728C11.6542 9.67987 12.0225 9.41962 12.1956 9.22884C12.6378 8.74153 13.1941 8.53584 14.0769 8.53331L14.8032 8.53125L15.304 8.06943C15.5907 7.80497 16.0743 7.49447 16.4355 7.34287C16.9816 7.11356 17.1904 7.0784 17.9949 7.08028C18.7786 7.08215 19.0154 7.12115 19.5095 7.32975C20.2905 7.65937 20.9346 8.21606 21.3606 8.9295C21.6951 9.48993 21.7104 9.55884 21.7104 10.5C21.7104 11.398 21.685 11.5283 21.4201 11.985C21.0694 12.59 20.45 13.218 19.9748 13.4505C19.7605 13.5552 19.5776 13.7407 19.5025 13.9294C19.2391 14.591 18.4181 14.9984 17.3464 14.9994L16.801 15L16.8303 16.0078L16.8597 17.0156L19.5337 17.0407C22.5177 17.0686 23.0792 16.9991 23.8726 16.5033C24.4382 16.1497 24.9183 15.4945 25.0665 14.8739C25.1459 14.5407 25.1716 12.789 25.149 9.23437L25.1163 4.07812L24.8284 3.54543C24.5021 2.94197 24.0021 2.50162 23.3154 2.21306C22.8617 2.02237 22.6838 2.01497 18.0982 1.99612C13.9086 1.97897 13.2899 1.995 12.8345 2.13262ZM13.838 4.64597C13.4114 4.91737 13.5997 5.4375 14.1246 5.4375C14.4543 5.4375 14.6407 5.28018 14.6407 5.00222C14.6407 4.82343 14.3083 4.5 14.1246 4.5C14.0931 4.5 13.9641 4.56572 13.838 4.64597ZM15.9824 4.6875C15.7482 4.90022 15.7311 4.99856 15.8828 5.25618C16.0038 5.46168 16.488 5.50322 16.6842 5.325C16.8804 5.14678 16.8347 4.707 16.6084 4.59703C16.3248 4.45922 16.2166 4.47478 15.9824 4.6875ZM21.0316 4.77403C20.8657 4.92478 20.73 5.1389 20.73 5.25C20.73 5.511 21.2683 6 21.5556 6C21.843 6 22.3813 5.511 22.3813 5.25C22.3813 4.989 21.843 4.5 21.5556 4.5C21.4333 4.5 21.1976 4.62328 21.0316 4.77403ZM5.45512 9.53334C5.25644 9.55228 4.583 9.6524 3.95859 9.75581C1.84509 10.1056 1.85211 10.0961 2.21881 12.1043C2.56652 14.0088 2.56167 14.0038 4.11217 14.0473L5.24199 14.0789L5.2711 17.8289L5.3003 21.5789L5.58991 21.805L5.87951 22.0312H10.5744H15.2693L15.5226 21.8011L15.776 21.571V17.8249V14.0786L16.9603 14.0471C18.5338 14.0053 18.5141 14.0235 18.8339 12.3124C19.1412 10.668 19.141 10.4921 18.8314 10.2279C18.4898 9.93647 16.5233 9.58481 14.7811 9.50381L13.4251 9.44071L12.812 10.0044C11.4485 11.2584 9.54341 11.2757 8.31946 10.0452C8.11397 9.83859 7.85296 9.62437 7.73933 9.56915C7.54633 9.47531 6.27098 9.45525 5.45512 9.53334Z" fill="black" fill-opacity="0.329"/>
<path fill-rule="evenodd" clip-rule="evenodd" d="M13.3265 2.064C12.3332 2.25028 11.5857 2.76085 11.164 3.54094L10.8735 4.07813L10.8423 7.01925L10.8109 9.96038L11.1003 9.89475C11.4475 9.816 12.0165 9.43735 12.1642 9.18666C12.2227 9.08719 12.4713 8.89913 12.7164 8.76853C13.0878 8.57091 13.2935 8.53125 13.9481 8.53125H14.7341L15.2565 8.05669C15.5438 7.79569 16.0453 7.46878 16.3708 7.33013C16.8897 7.10925 17.0904 7.07813 17.9949 7.07813C18.8978 7.07813 19.1006 7.10944 19.6149 7.32844C21.4401 8.10563 22.3251 10.1663 21.5406 11.8125C21.2221 12.4808 20.8363 12.9252 20.2346 13.3165C19.8893 13.5412 19.5959 13.8273 19.4656 14.0663C19.142 14.6605 18.5889 14.9436 17.6688 14.9858L16.9112 15.0205V15.9946V16.9688H19.7827C23.0381 16.9688 23.2875 16.93 24.0727 16.3021C24.3317 16.095 24.6651 15.6939 24.8267 15.3951L25.1163 14.8594V9.5625C25.1163 4.56619 25.1051 4.23919 24.9185 3.7995C24.6581 3.18638 23.9501 2.51128 23.2806 2.23791C22.7453 2.01928 22.7196 2.01807 18.2529 2.00016C15.7837 1.99022 13.5668 2.01891 13.3265 2.064ZM13.7892 4.60125C13.4115 4.80113 13.689 5.53125 14.1426 5.53125C14.378 5.53125 14.6406 5.22019 14.6406 4.94119C14.6406 4.5721 14.1868 4.39088 13.7892 4.60125ZM15.9468 4.67147C15.6986 4.92047 15.7365 5.22216 16.0382 5.40178C16.5583 5.71135 17.1049 5.20425 16.7626 4.72978C16.5649 4.45566 16.1886 4.42875 15.9468 4.67147ZM20.9833 4.73016C20.4713 5.19516 20.8341 6 21.5556 6C21.9799 6 22.3813 5.63541 22.3813 5.25C22.3813 4.8646 21.9799 4.5 21.5556 4.5C21.3546 4.5 21.143 4.58503 20.9833 4.73016ZM5.74666 9.56203C4.20153 9.696 2.5407 10.0218 2.28144 10.2418C1.98564 10.493 1.98771 10.7011 2.30208 12.3304C2.62492 14.0029 2.5859 13.9688 4.17645 13.9688H5.35189V17.7656C5.35189 21.4012 5.36046 21.5703 5.55253 21.7448C5.66296 21.8451 5.90674 21.9508 6.09437 21.9799C6.282 22.0089 8.42502 22.0218 10.8566 22.0086L15.2778 21.9844L15.5268 21.7213L15.7759 21.4583V17.7135V13.9688H16.9433C17.9594 13.9688 18.1389 13.9449 18.3275 13.7854C18.5671 13.5826 18.5712 13.5686 18.876 11.9108C19.1099 10.6384 19.0902 10.3841 18.7415 10.1797C18.2715 9.90394 14.3656 9.39 13.6556 9.51047C13.4617 9.54338 13.1457 9.7471 12.83 10.0427C12.1226 10.705 11.4806 10.9669 10.5639 10.9669C9.63679 10.9669 8.95097 10.6884 8.26164 10.032C7.79411 9.58669 7.71732 9.54947 7.19984 9.51816C6.893 9.4996 6.23907 9.51928 5.74666 9.56203Z" fill="black" fill-opacity="0.988"/>
</svg>
