<svg width="28" height="24" viewBox="0 0 28 24" fill="none" xmlns="http://www.w3.org/2000/svg">
<path fill-rule="evenodd" clip-rule="evenodd" d="M12.8998 2.13441C12.541 2.24156 12.2084 2.44697 11.8085 2.80837C10.9191 3.61181 10.8872 3.75225 10.8872 6.86044C10.8872 9.80709 10.8591 9.7245 11.6522 9.10087C11.9096 8.89856 12.2143 8.70581 12.3294 8.67272C12.5306 8.61469 12.5388 8.53641 12.5443 6.62653C12.551 4.39566 12.6128 4.10306 13.1473 3.77672L13.498 3.5625H18.0877H22.6773L23.078 3.92644L23.4787 4.29047V9.49191C23.4787 14.6248 23.4758 14.6967 23.2632 14.9423C22.8304 15.4421 22.6638 15.4688 19.9747 15.4688H17.4926V16.2656V17.0625H19.8963C22.5693 17.0625 23.1768 16.9789 23.9313 16.5073C24.171 16.3576 24.4955 16.0668 24.6524 15.861C25.2272 15.1075 25.2332 15.0418 25.2332 9.45741C25.2332 4.43456 25.2283 4.30753 25.012 3.78253C24.7178 3.06816 24.0229 2.43694 23.2364 2.16966C22.6634 1.97494 22.5036 1.96894 18.0305 1.97456C14.0386 1.97953 13.3462 2.00109 12.8998 2.13441ZM13.7193 4.72978C13.5236 5.001 13.5979 5.30016 13.8969 5.44556C14.4278 5.70366 14.9815 5.17481 14.6548 4.72172C14.4339 4.41562 13.9428 4.41984 13.7193 4.72978ZM15.9651 4.6125C15.6687 4.88175 15.9537 5.53125 16.3682 5.53125C16.6334 5.53125 16.9765 5.2455 16.9765 5.02481C16.9765 4.60762 16.2821 4.3245 15.9651 4.6125ZM21.0486 4.73016C20.5366 5.19516 20.8994 6 21.6209 6C22.0452 6 22.4466 5.63541 22.4466 5.25C22.4466 4.86459 22.0452 4.5 21.6209 4.5C21.4199 4.5 21.2083 4.58503 21.0486 4.73016ZM17.3761 7.03284C16.6485 7.1445 16.0054 7.44066 15.4318 7.92806C15.1461 8.17078 14.9124 8.40281 14.9124 8.44359C14.9124 8.48437 15.1795 8.54494 15.5058 8.57812C15.8322 8.61131 16.5377 8.70309 17.0735 8.78212C19.0764 9.07744 19.6055 9.28912 19.972 9.94162C20.2326 10.4058 20.2303 10.7356 19.9556 12.259C19.8323 12.9429 19.7624 13.5306 19.8003 13.565C19.9185 13.6723 20.7228 13.0926 21.1311 12.6057C21.8511 11.7472 22.0951 10.5764 21.7666 9.55612C21.3483 8.25675 20.2352 7.32881 18.7518 7.04287C18.1497 6.92691 18.0705 6.92625 17.3761 7.03284ZM5.52039 9.53494C5.32172 9.55491 4.64828 9.65512 4.02387 9.75778C1.87879 10.1104 1.90934 10.0642 2.32971 12.3289C2.49979 13.2455 2.68464 14.0729 2.74037 14.1675C2.90654 14.4494 3.19366 14.5312 4.01706 14.5312H4.79794L4.80124 18.0234C4.80361 20.6208 4.83674 21.5538 4.93025 21.6644C5.23244 22.0219 5.37848 22.0312 10.6682 22.0312H15.8297L16.1193 21.805L16.4089 21.5789L16.4383 18.055L16.4677 14.5312H17.1817C18.0192 14.5312 18.367 14.412 18.5152 14.0737C18.6437 13.7805 19.1439 11.1079 19.1439 10.7145C19.1439 10.5421 19.0477 10.3568 18.887 10.2198C18.4957 9.88575 16.6089 9.57778 14.4908 9.50231L12.7791 9.44119L12.375 9.77034C11.2812 10.6612 10.1192 10.6996 8.96178 9.88322L8.37411 9.46875L7.12787 9.48375C6.44246 9.492 5.71907 9.51506 5.52039 9.53494ZM4.75252 11.2137C4.30181 11.2876 3.92252 11.3577 3.90962 11.3694C3.89672 11.3812 3.92758 11.6017 3.97836 11.8595C4.02903 12.1172 4.09694 12.4653 4.12925 12.6328L4.18808 12.9375H4.95254C5.37301 12.9375 5.8389 12.9879 5.98772 13.0495C6.53628 13.2765 6.55248 13.3918 6.55248 17.0578V20.4375H10.6292H14.7059V16.974V13.5105L14.955 13.2474C15.1878 13.0013 15.2639 12.9823 16.1307 12.952L17.0576 12.9196L17.1851 12.1749C17.2552 11.7653 17.2902 11.4099 17.2628 11.385C17.1266 11.2613 15.3534 11.063 14.3963 11.0644C13.3683 11.0659 13.2896 11.0801 12.8639 11.3422C11.4511 12.2119 9.75462 12.2162 8.37431 11.3536C7.91793 11.0683 7.88511 11.0627 6.74032 11.0709C6.09774 11.0755 5.20323 11.1397 4.75252 11.2137Z" fill="black" fill-opacity="0.325"/>
<path fill-rule="evenodd" clip-rule="evenodd" d="M13.2917 2.06381C12.412 2.22843 11.64 2.78109 11.2297 3.54009L10.9388 4.07812L10.9072 6.77343C10.8871 8.48803 10.9123 9.46875 10.9766 9.46875C11.0321 9.46875 11.2786 9.32015 11.5242 9.13856C11.77 8.95696 12.0986 8.75793 12.2547 8.69615L12.5385 8.58393V6.50897C12.5385 4.50778 12.5469 4.42265 12.7728 4.11543C13.2578 3.456 13.2062 3.462 18.1682 3.49031C23.0463 3.51806 22.9185 3.50306 23.3482 4.09875C23.5165 4.33218 23.5302 4.73925 23.5302 9.5115C23.5302 14.4252 23.5209 14.6844 23.3344 14.9345C22.9608 15.4351 22.7899 15.4629 20.0315 15.4738L17.4926 15.4839V16.2263V16.9687H20.106C23.0773 16.9687 23.3635 16.9214 24.1379 16.3021C24.397 16.095 24.7304 15.6939 24.892 15.3951L25.1816 14.8594V9.51562V4.17187L24.914 3.65625C24.5771 3.00731 24.1011 2.57578 23.3754 2.26153L22.8078 2.01562L18.2666 1.99912C15.769 1.99003 13.5302 2.01918 13.2917 2.06381ZM13.836 4.64728C13.5903 4.8705 13.6352 5.22272 13.9319 5.39925C14.1709 5.54147 14.2089 5.54147 14.4479 5.39925C14.8837 5.13993 14.6999 4.5 14.1899 4.5C14.0845 4.5 13.9253 4.56628 13.836 4.64728ZM15.9997 4.68375C15.7781 4.90621 15.853 5.29265 16.1453 5.43478C16.3614 5.53987 16.8733 5.41697 16.8733 5.26003C16.8733 5.21137 16.9001 5.10815 16.9329 5.03053C17.0066 4.85597 16.6312 4.5 16.3733 4.5C16.2685 4.5 16.1005 4.58268 15.9997 4.68375ZM21.1388 4.635C20.6564 4.95046 20.7496 5.69493 21.2973 5.901C21.71 6.05625 22.146 5.9249 22.325 5.59134C22.4766 5.30859 22.4091 4.85381 22.1911 4.68947C21.9478 4.5059 21.381 4.47665 21.1388 4.635ZM16.8995 7.16278C16.3254 7.33275 15.4983 7.8194 15.1564 8.18831L14.8841 8.4824L15.9557 8.59678C18.2762 8.84437 19.3086 9.12693 19.7897 9.64621C20.288 10.1842 20.3209 10.5239 20.026 12.0858C19.8814 12.8515 19.7631 13.5052 19.7631 13.5383C19.7631 13.666 20.3628 13.3083 20.7723 12.9362C22.6123 11.2649 22.0414 8.37375 19.6677 7.34165C18.97 7.03828 17.6156 6.95081 16.8995 7.16278ZM5.7784 9.55884C4.30365 9.68643 2.60205 10.0251 2.34672 10.2418C2.05123 10.4927 2.0534 10.6058 2.38913 12.4597C2.74407 14.4198 2.78081 14.4679 3.95873 14.5165L4.79079 14.5508L4.82021 18.0542L4.84952 21.5574L5.08453 21.7709L5.31953 21.9844L10.2966 22.0127C13.0339 22.0282 15.4271 22.0154 15.6148 21.984C15.8024 21.9527 16.0462 21.8451 16.1566 21.7447C16.3482 21.5707 16.3573 21.4039 16.3573 18.0469V14.5312L16.6927 14.523C18.5625 14.4767 18.4391 14.5974 18.8435 12.4191C19.0148 11.4958 19.1285 10.6447 19.0962 10.5277C19.0639 10.4107 18.9217 10.246 18.7803 10.1618C18.3567 9.90975 15.7603 9.55537 14.1828 9.53428L12.7824 9.51562L12.4011 9.81853C11.8596 10.2487 11.4612 10.4144 10.8249 10.474C10.1305 10.5391 9.47223 10.3276 8.89539 9.85396C8.48948 9.52068 8.46914 9.51543 7.54367 9.50156C7.02691 9.49378 6.23251 9.51956 5.7784 9.55884ZM6.03642 11.0274C5.89451 11.0456 5.40385 11.1064 4.94612 11.1623C4.48839 11.2184 4.05554 11.297 3.98422 11.3371C3.88256 11.3941 3.87895 11.54 3.96729 12.0097C4.1797 13.1384 4.06173 13.0312 5.09154 13.0312C6.54843 13.0312 6.44925 12.7414 6.44925 16.9982V20.5312H10.5776H14.7059V17.1702C14.7059 13.7069 14.7473 13.3056 15.1228 13.123C15.2266 13.0726 15.7052 13.0312 16.1863 13.0312H17.061L17.1813 12.3516C17.2473 11.9778 17.3239 11.5994 17.3513 11.5109C17.3856 11.3999 17.3272 11.3347 17.163 11.3007C17.032 11.2737 16.7159 11.209 16.4605 11.1572C16.205 11.1052 15.4133 11.0355 14.7012 11.0022L13.4063 10.9417L12.8664 11.294C12.2525 11.6946 11.2855 12 10.6308 12C9.98497 12 8.94349 11.6794 8.35499 11.2992C7.87198 10.9873 7.79963 10.9695 7.06881 10.9815C6.64287 10.9885 6.17833 11.0092 6.03642 11.0274Z" fill="black" fill-opacity="0.988"/>
</svg>
