<svg width="26" height="26" viewBox="0 0 26 26" fill="none" xmlns="http://www.w3.org/2000/svg">
<path d="M13.0003 2.16699C7.03116 2.16699 2.16699 7.03116 2.16699 13.0003C2.16699 18.9695 7.03116 23.8337 13.0003 23.8337C18.9695 23.8337 23.8337 18.9695 23.8337 13.0003C23.8337 7.03116 18.9695 2.16699 13.0003 2.16699ZM18.1787 10.5087L12.0362 16.6512C11.8845 16.8028 11.6787 16.8895 11.462 16.8895C11.2453 16.8895 11.0395 16.8028 10.8878 16.6512L7.82199 13.5853C7.50783 13.2712 7.50783 12.7512 7.82199 12.437C8.13616 12.1228 8.65616 12.1228 8.97033 12.437L11.462 14.9287L17.0303 9.36033C17.3445 9.04616 17.8645 9.04616 18.1787 9.36033C18.4928 9.67449 18.4928 10.1837 18.1787 10.5087Z" fill="#6E97AE"/>
</svg>
